<svg width="290" height="477" viewBox="0 0 290 477" fill="none" xmlns="http://www.w3.org/2000/svg">
<path d="M277.213 449.426C276.31 447.92 274.682 446.999 272.926 446.999H83.5856C81.8074 446.999 80.163 447.944 79.2669 449.479L67.5977 469.479C65.6529 472.813 68.0572 476.999 71.9164 476.999H284.929C288.815 476.999 291.216 472.759 289.216 469.426L277.213 449.426Z" fill="#4B4242"/>
<rect width="195.043" height="357.011" transform="matrix(-1 0 0 1 275.757 90.9885)" fill="#4B4242"/>
<path d="M275.757 240.639C275.757 240.639 255.759 282.595 178.235 240.639C100.712 198.684 80.7141 240.639 80.7141 240.639V447.999H275.757V240.639Z" fill="url(#paint0_radial_209_1207)"/>
<ellipse rx="97.6901" ry="84.668" transform="matrix(-1 0 0 1 178.366 84.668)" fill="#4B4242"/>
<rect width="70.9925" height="15.9891" rx="7.99457" transform="matrix(-1 0 0 1 80.6758 232.427)" fill="#20EFA5"/>
<rect width="53.2666" height="15.3847" rx="7.69237" transform="matrix(0 -1 -1 0 25.0684 285.694)" fill="#20EFA5"/>
<path d="M80.6758 200.352H68.2521C62.7292 200.352 58.2521 204.829 58.2521 210.352V276.08C58.2521 281.603 62.7292 286.08 68.2521 286.08H80.6758V200.352Z" fill="#4B4242"/>
<rect width="32.5803" height="8.66886" transform="matrix(-1 0 0 1 33.5171 277.41)" fill="#20EFA5"/>
<ellipse rx="12.7203" ry="13.0995" transform="matrix(-1 0 0 1 33.4662 238.014)" fill="#EA61E5"/>
<rect width="9.75375" height="11.7511" rx="4.87688" transform="matrix(-1 0 0 1 38.3433 220.676)" fill="#EA61E5"/>
<path d="M44.9025 222.084C45.6552 222.069 46.1046 221.233 45.7183 220.566L41.2272 212.813C40.8348 212.135 39.8773 212.14 39.511 212.822L35.2524 220.744C34.886 221.426 35.3884 222.267 36.1528 222.252L44.9025 222.084Z" fill="#7D0AD7"/>
<path d="M22.4769 222.076C21.7242 222.061 21.2748 221.225 21.6611 220.558L26.1522 212.805C26.5446 212.127 27.5021 212.133 27.8684 212.814L32.127 220.736C32.4934 221.418 31.991 222.259 31.2265 222.245L22.4769 222.076Z" fill="#7D0AD7"/>
<defs>
<radialGradient id="paint0_radial_209_1207" cx="0" cy="0" r="1" gradientUnits="userSpaceOnUse" gradientTransform="translate(178.235 334.996) rotate(90) scale(113.003 97.5214)">
<stop stop-color="#EA61E5"/>
<stop offset="1" stop-color="#7D0AD7"/>
</radialGradient>
</defs>
</svg>
