<svg width="391" height="345" viewBox="0 0 391 345" fill="none" xmlns="http://www.w3.org/2000/svg">
<rect x="10.0005" y="24" width="361" height="244" rx="50" fill="#4B4242"/>
<rect x="28.5107" y="92.6266" width="235.055" height="138.957" fill="white"/>
<path fill-rule="evenodd" clip-rule="evenodd" d="M185.633 115.44C127.026 95.4955 61.7647 122.599 39.8667 175.977L145.983 212.09L251.767 175.176C240.543 148.524 217.299 126.217 185.633 115.44Z" fill="black"/>
<rect width="24.994" height="4.27417" rx="2.13708" transform="matrix(0.945644 0.325203 -0.382954 0.923767 36.9014 170.433)" fill="#00B574"/>
<rect width="24.2347" height="4.41882" rx="2.20941" transform="matrix(0.760112 0.649792 -0.717652 0.696402 71.3877 126.799)" fill="#20EFA5"/>
<rect width="24.2347" height="4.41882" rx="2.20941" transform="matrix(-0.760112 0.649792 0.717652 0.696402 227.219 129.711)" fill="#20EFA5"/>
<rect width="24.994" height="4.27417" rx="2.13708" transform="matrix(-0.945644 0.325203 0.382954 0.923767 253.992 170.433)" fill="#00B574"/>
<rect width="22.9979" height="4.61031" rx="2.30516" transform="matrix(0 -1 -1 0 148.308 128.222)" fill="#20EFA5"/>
<rect x="55.0396" width="23.9736" height="46.9648" rx="11.9868" fill="#4B4242"/>
<rect x="89.7915" width="23.9736" height="46.9648" rx="11.9868" fill="#4B4242"/>
<rect x="370.879" y="97.8594" width="9.78797" height="18.5405" fill="#4B4242"/>
<path d="M387.423 100.157L390.508 105.259L377.907 109.511L376.687 107.191L387.423 100.157Z" fill="#4B4242"/>
<rect x="370.879" y="124.669" width="9.78797" height="18.5405" fill="#4B4242"/>
<path d="M387.423 140.961L390.508 135.859L377.907 131.607L376.687 133.927L387.423 140.961Z" fill="#4B4242"/>
<rect x="103.2" y="267.76" width="174.199" height="44.7684" fill="#4B4242"/>
<rect x="145.969" y="312.528" width="93.7667" height="32.3004" fill="#4B4242"/>
</svg>
