<svg width="1115" height="354" viewBox="0 0 1115 354" fill="none" xmlns="http://www.w3.org/2000/svg">
<path d="M94.5005 228.182L107.655 239.131L74.3618 274.281L65.2854 266.98L94.5005 228.182Z" fill="#46027B"/>
<path d="M97.6211 220.758L107.51 206.789L66.2824 181.405L59.3943 190.8L97.6211 220.758Z" fill="#46027B"/>
<rect width="17.5293" height="83.9095" transform="matrix(0.171216 0.985234 0.985234 -0.171216 103.051 214.697)" fill="#00B574"/>
<rect width="20" height="127" transform="matrix(-1 0 0 1 198 85)" fill="#00B574"/>
<path d="M152.642 52.4229C151.776 46.3958 156.451 41 162.54 41H211.531C217.595 41 222.264 46.3544 221.438 52.3622L212.636 116.375C212.233 119.307 210.561 121.916 207.955 123.317C202.996 125.984 194.456 130 188 130C181.505 130 172.224 125.936 166.834 123.27C164.064 121.899 162.243 119.21 161.803 116.15L152.642 52.4229Z" fill="#20EFA5"/>
<circle cx="187.5" cy="30.5" r="29.5" fill="#20EFA5"/>
<circle cx="187" cy="30" r="23" fill="#7D0AD7"/>
<circle cx="188" cy="213" r="20.5" fill="#7D0AD7" stroke="#04DD8F" stroke-width="5"/>
<circle cx="187.5" cy="30.5" r="10.5" fill="#00B574"/>
<circle cx="105.78" cy="223.464" r="13" transform="rotate(-46.6801 105.78 223.464)" fill="#00B574" stroke="#7D0AD7" stroke-width="10"/>
<path d="M52.6564 264.768C57.2199 266.9 59.024 272.45 56.5859 276.857V276.857C54.1656 281.232 48.5636 282.669 44.3357 280.001L7.54217 256.778C4.91681 255.121 4.00725 251.724 5.45353 248.977V248.977C6.93263 246.167 10.3574 245.015 13.2342 246.358L52.6564 264.768Z" fill="#46027B"/>
<circle cx="63.0148" cy="278.057" r="13" transform="rotate(84.4034 63.0148 278.057)" fill="#00B574" stroke="#7D0AD7" stroke-width="10"/>
<path d="M47.7625 196.19C51.6226 192.955 51.9355 187.127 48.444 183.498V183.498C44.978 179.894 39.1947 179.949 35.7973 183.617L6.23122 215.537C4.12157 217.815 4.11827 221.332 6.22365 223.613V223.613C8.3768 225.947 11.9829 226.178 14.4163 224.138L47.7625 196.19Z" fill="#46027B"/>
<circle r="13" transform="matrix(-0.162249 -0.98675 -0.98675 0.162249 54.3463 180.682)" fill="#00B574" stroke="#7D0AD7" stroke-width="10"/>
<path d="M540.5 227.182L553.655 238.131L520.362 273.281L511.285 265.98L540.5 227.182Z" fill="#46027B"/>
<path d="M543.621 219.758L553.51 205.789L512.282 180.405L505.394 189.8L543.621 219.758Z" fill="#46027B"/>
<rect width="17.5293" height="83.9095" transform="matrix(0.171216 0.985234 0.985234 -0.171216 549.051 213.697)" fill="#00B574"/>
<rect width="20" height="127" transform="matrix(-1 0 0 1 644 84)" fill="#00B574"/>
<path d="M598.642 51.4229C597.776 45.3958 602.451 40 608.54 40H657.531C663.595 40 668.264 45.3544 667.438 51.3622L658.636 115.375C658.233 118.307 656.561 120.916 653.955 122.317C648.996 124.984 640.456 129 634 129C627.505 129 618.224 124.936 612.834 122.27C610.064 120.899 608.243 118.21 607.803 115.15L598.642 51.4229Z" fill="#20EFA5"/>
<circle cx="633.5" cy="29.5" r="29.5" fill="#20EFA5"/>
<circle cx="633" cy="29" r="23" fill="#7D0AD7"/>
<circle cx="634" cy="212" r="20.5" fill="#7D0AD7" stroke="#04DD8F" stroke-width="5"/>
<circle cx="633.5" cy="29.5" r="10.5" fill="#00B574"/>
<circle cx="551.78" cy="222.464" r="13" transform="rotate(-46.6801 551.78 222.464)" fill="#00B574" stroke="#7D0AD7" stroke-width="10"/>
<path d="M498.656 263.768C503.22 265.9 505.024 271.45 502.586 275.857V275.857C500.166 280.232 494.564 281.669 490.336 279.001L453.542 255.778C450.917 254.121 450.007 250.724 451.454 247.977V247.977C452.933 245.167 456.357 244.015 459.234 245.358L498.656 263.768Z" fill="#46027B"/>
<circle cx="509.015" cy="277.057" r="13" transform="rotate(84.4034 509.015 277.057)" fill="#00B574" stroke="#7D0AD7" stroke-width="10"/>
<path d="M493.763 195.19C497.623 191.955 497.935 186.127 494.444 182.498V182.498C490.978 178.894 485.195 178.949 481.797 182.617L452.231 214.537C450.122 216.815 450.118 220.332 452.224 222.613V222.613C454.377 224.947 457.983 225.178 460.416 223.138L493.763 195.19Z" fill="#46027B"/>
<circle r="13" transform="matrix(-0.162249 -0.98675 -0.98675 0.162249 500.346 179.682)" fill="#00B574" stroke="#7D0AD7" stroke-width="10"/>
<path d="M317.689 188.307L324.879 203.841L279.694 221.31L274.625 210.821L317.689 188.307Z" fill="#46027B"/>
<path d="M323.697 182.94L338.632 174.564L312.262 133.949L302.003 139.48L323.697 182.94Z" fill="#46027B"/>
<rect width="17.5302" height="83.9642" transform="matrix(-0.268171 0.963371 0.963469 0.267821 331.207 179.795)" fill="#00B574"/>
<rect width="20.0141" height="127" transform="matrix(-1 0 0 1 420.982 85)" fill="#00B574"/>
<path d="M375.593 52.4239C374.726 46.3965 379.401 41 385.491 41H434.53C440.594 41 445.263 46.355 444.436 52.3631L435.629 116.374C435.225 119.306 433.553 121.916 430.945 123.317C425.983 125.984 417.437 130 410.975 130C404.475 130 395.186 125.935 389.793 123.269C387.022 121.899 385.2 119.209 384.759 116.149L375.593 52.4239Z" fill="#20EFA5"/>
<ellipse cx="410.475" cy="30.5" rx="29.5207" ry="29.5" fill="#20EFA5"/>
<ellipse cx="409.975" cy="30" rx="23.0162" ry="23" fill="#7D0AD7"/>
<path d="M431.492 213C431.492 224.32 422.308 233.5 410.975 233.5C399.643 233.5 390.459 224.32 390.459 213C390.459 201.68 399.643 192.5 410.975 192.5C422.308 192.5 431.492 201.68 431.492 213Z" fill="#7D0AD7" stroke="#04DD8F" stroke-width="5"/>
<ellipse cx="410.475" cy="30.5" rx="10.5074" ry="10.5" fill="#00B574"/>
<path d="M342.036 184.166C344.642 190.854 341.33 198.392 334.631 200.999C327.932 203.605 320.391 200.291 317.785 193.603C315.179 186.914 318.491 179.377 325.189 176.77C331.888 174.163 339.429 177.478 342.036 184.166Z" fill="#00B574" stroke="#7D0AD7" stroke-width="10"/>
<path d="M267.245 207.149C270.601 210.908 270.07 216.721 266.089 219.809V219.809C262.136 222.874 256.417 221.985 253.582 217.865L228.915 182.015C227.154 179.456 227.658 175.975 230.073 174.021V174.021C232.542 172.023 236.146 172.315 238.262 174.685L267.245 207.149Z" fill="#46027B"/>
<path d="M263.409 232.084C256.645 229.65 253.141 222.199 255.575 215.446C258.008 208.694 265.462 205.187 272.225 207.621C278.989 210.056 282.493 217.506 280.059 224.259C277.626 231.012 270.172 234.518 263.409 232.084Z" fill="#00B574" stroke="#7D0AD7" stroke-width="10"/>
<path d="M289.179 139.358C294.055 138.092 296.837 132.963 295.239 128.186V128.186C293.653 123.444 288.404 121.012 283.761 122.866L243.324 139.02C240.441 140.171 238.93 143.346 239.853 146.31V146.31C240.798 149.342 243.957 151.098 247.031 150.3L289.179 139.358Z" fill="#46027B"/>
<path d="M305.384 115.682C298.475 113.694 291.267 117.679 289.279 124.576C287.292 131.473 291.275 138.679 298.183 140.667C305.092 142.655 312.3 138.67 314.288 131.773C316.275 124.876 312.292 117.67 305.384 115.682Z" fill="#00B574" stroke="#7D0AD7" stroke-width="10"/>
<path d="M763.073 268.178L779.337 273.572L761.144 318.448L750.014 314.962L763.073 268.178Z" fill="#46027B"/>
<path d="M763.27 260.127L767.384 243.513L719.674 234.925L716.685 246.185L763.27 260.127Z" fill="#46027B"/>
<rect width="17.5355" height="83.99" transform="matrix(0.519445 0.854504 0.855108 -0.51845 766.117 252.503)" fill="#00B574"/>
<rect width="20.0263" height="127" transform="matrix(-1 0 0 1 866.967 85)" fill="#00B574"/>
<path d="M821.55 52.4247C820.682 46.3971 825.358 41 831.448 41H880.529C886.594 41 891.262 46.3556 890.435 52.3639L881.622 116.373C881.219 119.306 879.545 121.916 876.937 123.316C871.972 125.983 863.42 130 856.954 130C850.449 130 841.154 125.935 835.758 123.268C832.986 121.899 831.163 119.209 830.722 116.148L821.55 52.4247Z" fill="#20EFA5"/>
<ellipse cx="856.453" cy="30.5" rx="29.5387" ry="29.5" fill="#20EFA5"/>
<ellipse cx="855.953" cy="30" rx="23.0302" ry="23" fill="#7D0AD7"/>
<path d="M877.484 213C877.484 224.319 868.296 233.5 856.954 233.5C845.612 233.5 836.424 224.319 836.424 213C836.424 201.681 845.612 192.5 856.954 192.5C868.296 192.5 877.484 201.681 877.484 213Z" fill="#7D0AD7" stroke="#04DD8F" stroke-width="5"/>
<ellipse cx="856.453" cy="30.5" rx="10.5138" ry="10.5" fill="#00B574"/>
<path d="M776.724 247.608C783.4 250.291 786.628 257.867 783.946 264.524C781.264 271.181 773.682 274.413 767.005 271.731C760.329 269.048 757.101 261.472 759.783 254.815C762.465 248.158 770.047 244.925 776.724 247.608Z" fill="#00B574" stroke="#7D0AD7" stroke-width="10"/>
<path d="M737.445 317.512C742.471 317.831 746.176 322.339 745.513 327.332V327.332C744.855 332.289 740.164 335.673 735.253 334.732L692.448 326.535C689.399 325.951 687.313 323.12 687.657 320.035V320.035C688.009 316.879 690.778 314.556 693.947 314.757L737.445 317.512Z" fill="#46027B"/>
<path d="M757.855 337.688C751.444 340.95 743.605 338.402 740.342 332.007C737.08 325.613 739.623 317.781 746.035 314.519C752.446 311.256 760.286 313.804 763.548 320.199C766.81 326.594 764.267 334.425 757.855 337.688Z" fill="#00B574" stroke="#7D0AD7" stroke-width="10"/>
<path d="M710.115 254.328C713.061 250.237 711.925 244.511 707.639 241.856V241.856C703.385 239.221 697.786 240.704 695.395 245.1L674.608 283.328C673.124 286.058 673.99 289.468 676.597 291.159V291.159C679.264 292.888 682.821 292.22 684.678 289.641L710.115 254.328Z" fill="#46027B"/>
<path d="M701.628 227.433C695.444 231.105 693.416 239.086 697.09 245.255C700.764 251.424 708.753 253.455 714.937 249.782C721.121 246.109 723.148 238.129 719.475 231.96C715.801 225.791 707.812 223.76 701.628 227.433Z" fill="#00B574" stroke="#7D0AD7" stroke-width="10"/>
<path d="M986.074 267.178L1002.34 272.572L984.145 317.448L973.015 313.962L986.074 267.178Z" fill="#46027B"/>
<path d="M986.271 259.127L990.385 242.513L942.675 233.925L939.687 245.185L986.271 259.127Z" fill="#46027B"/>
<rect width="17.5355" height="83.9897" transform="matrix(0.519443 0.854505 0.855107 -0.518452 989.118 251.503)" fill="#00B574"/>
<rect width="20.0262" height="127" transform="matrix(-1 0 0 1 1089.97 84)" fill="#00B574"/>
<path d="M1044.55 51.4247C1043.68 45.3971 1048.36 40 1054.45 40H1103.53C1109.59 40 1114.26 45.3556 1113.44 51.3639L1104.62 115.373C1104.22 118.306 1102.55 120.916 1099.94 122.316C1094.97 124.983 1086.42 129 1079.95 129C1073.45 129 1064.16 124.935 1058.76 122.268C1055.99 120.899 1054.16 118.209 1053.72 115.148L1044.55 51.4247Z" fill="#20EFA5"/>
<ellipse cx="1079.45" cy="29.5" rx="29.5386" ry="29.5" fill="#20EFA5"/>
<ellipse cx="1078.95" cy="29" rx="23.0301" ry="23" fill="#7D0AD7"/>
<path d="M1100.48 212C1100.48 223.319 1091.3 232.5 1079.95 232.5C1068.61 232.5 1059.42 223.319 1059.42 212C1059.42 200.681 1068.61 191.5 1079.95 191.5C1091.3 191.5 1100.48 200.681 1100.48 212Z" fill="#7D0AD7" stroke="#04DD8F" stroke-width="5"/>
<ellipse cx="1079.45" cy="29.5" rx="10.5137" ry="10.5" fill="#00B574"/>
<path d="M999.724 246.608C1006.4 249.291 1009.63 256.867 1006.95 263.524C1004.26 270.181 996.682 273.413 990.006 270.731C983.329 268.048 980.102 260.472 982.783 253.815C985.465 247.158 993.047 243.925 999.724 246.608Z" fill="#00B574" stroke="#7D0AD7" stroke-width="10"/>
<path d="M954.118 314.539C958.352 311.808 964.017 313.232 966.457 317.64V317.64C968.879 322.015 967.119 327.523 962.608 329.685L923.32 348.509C920.519 349.851 917.155 348.815 915.595 346.13V346.13C913.999 343.383 914.843 339.871 917.512 338.149L954.118 314.539Z" fill="#46027B"/>
<path d="M982.548 318.638C979.34 325.06 971.523 327.674 965.084 324.466C958.645 321.258 956.035 313.448 959.243 307.026C962.451 300.604 970.268 297.99 976.707 301.198C983.146 304.407 985.756 312.216 982.548 318.638Z" fill="#00B574" stroke="#7D0AD7" stroke-width="10"/>
<path d="M937.626 263.712C941.17 260.128 940.935 254.296 937.113 251.01V251.01C933.319 247.748 927.558 248.347 924.516 252.318L898.046 286.872C896.156 289.338 896.484 292.841 898.797 294.914V294.914C901.163 297.035 904.78 296.926 907.014 294.667L937.626 263.712Z" fill="#46027B"/>
<path d="M945.834 234.95C938.865 233.152 931.766 237.337 929.969 244.284C928.172 251.23 932.353 258.326 939.322 260.124C946.291 261.922 953.39 257.737 955.187 250.79C956.984 243.844 952.803 236.748 945.834 234.95Z" fill="#00B574" stroke="#7D0AD7" stroke-width="10"/>
</svg>
