<svg width="1440" height="90" viewBox="0 0 1440 90" fill="none" xmlns="http://www.w3.org/2000/svg">
<rect x="5" y="5" width="1430" height="80" rx="40" fill="#46027B" stroke="#20EFA5" stroke-width="10"/>
<circle cx="882.5" cy="45.5" r="10.5" fill="#00B574"/>
<circle cx="962.5" cy="45.5" r="10.5" fill="#00B574"/>
<circle cx="802.5" cy="45.5" r="10.5" fill="#00B574"/>
<circle cx="1227.5" cy="45.5" r="10.5" fill="#00B574"/>
<circle cx="1307.5" cy="45.5" r="10.5" fill="#00B574"/>
<circle cx="1147.5" cy="45.5" r="10.5" fill="#00B574"/>
<circle cx="51.5" cy="45.5" r="29.5" fill="#20EFA5"/>
<circle cx="51" cy="45" r="23" fill="#7D0AD7"/>
<circle cx="51.5" cy="45.5" r="10.5" fill="#00B574"/>
<circle cx="717.5" cy="45.5" r="29.5" fill="#20EFA5"/>
<circle cx="717" cy="45" r="23" fill="#7D0AD7"/>
<circle cx="717.5" cy="45.5" r="10.5" fill="#00B574"/>
<circle cx="384.5" cy="45.5" r="29.5" fill="#20EFA5"/>
<circle cx="384" cy="45" r="23" fill="#7D0AD7"/>
<circle cx="384.5" cy="45.5" r="10.5" fill="#00B574"/>
<circle cx="384.5" cy="45.5" r="10.5" fill="#00B574"/>
<circle cx="218.5" cy="45.5" r="10.5" fill="#00B574"/>
<circle cx="298.5" cy="45.5" r="10.5" fill="#00B574"/>
<circle cx="138.5" cy="45.5" r="10.5" fill="#00B574"/>
<circle cx="558.5" cy="45.5" r="10.5" fill="#00B574"/>
<circle cx="638.5" cy="45.5" r="10.5" fill="#00B574"/>
<circle cx="478.5" cy="45.5" r="10.5" fill="#00B574"/>
<circle cx="1050.5" cy="46.5" r="29.5" fill="#20EFA5"/>
<circle cx="1050" cy="46" r="23" fill="#7D0AD7"/>
<circle cx="1050.5" cy="46.5" r="10.5" fill="#00B574"/>
<circle cx="1392.5" cy="45.5" r="29.5" fill="#20EFA5"/>
<circle cx="1392" cy="45" r="23" fill="#7D0AD7"/>
<circle cx="1392.5" cy="45.5" r="10.5" fill="#00B574"/>
</svg>
