<svg width="1125" height="151" viewBox="0 0 1125 151" fill="none" xmlns="http://www.w3.org/2000/svg">
<path d="M281.018 79.4722H229.178L214.897 28.3562L196.118 123.395L184.845 1L175.834 79.4722H150.281L142.774 50.6748L134.509 103.232L122.49 21.8775L109.714 148.596L94.6874 1L87.1677 79.4722H27.0627L19.543 123.395L12.0365 40.5995L7.52466 79.4722H0.0180759" stroke="#20EFA5" stroke-width="10"/>
<path d="M562.018 79.4722H510.178L495.897 28.3562L477.118 123.395L465.506 79.4722L456.834 79.4722H431.281L423.774 50.6748L415.509 103.232L393.511 20.5L363.013 148.5L355.513 79.4722H338.514H308.063L300.543 123.395L293.036 40.5995L288.525 79.4722H281.018" stroke="#20EFA5" stroke-width="10"/>
<path d="M843.018 75.5947H791.27L774.626 2.5L757.657 75.5947L748.501 75.5947L738.021 75.5947H712.513H700.091L696.769 99.3544L684.772 18L672.018 144.718L660.663 75.5947H649.512H589.514L582.007 119.518L577.49 79.5H569.511H562.018" stroke="#20EFA5" stroke-width="10"/>
<path d="M1124.02 80.0511H1072.18L1061.5 33.5L1039.12 123.974L1029.33 80.0511L1018.83 80.0511H993.28H980.836L972.51 121L956.011 13L925.543 149.175L914.013 76H902.842H877.516H866.297L858.517 41.5L853.517 75.5H839.018" stroke="#20EFA5" stroke-width="10"/>
</svg>
