<svg width="403" height="314" viewBox="0 0 403 314" fill="none" xmlns="http://www.w3.org/2000/svg">
<path d="M145.523 286.155C155.345 244.767 123.957 205.058 81.4201 205.058V205.058C39.8118 205.058 8.6221 243.151 16.8319 283.941L20.1219 300.287C21.6166 307.714 28.141 313.056 35.7163 313.056H126.809C134.036 313.056 140.317 308.091 141.986 301.059L145.523 286.155Z" fill="#AAE0FF"/>
<rect width="76.4946" height="16.5328" transform="matrix(-1 0 0 1 121.075 200.364)" fill="#7D0AD7"/>
<rect width="12.8585" height="86.7501" transform="matrix(-1 0 0 1 89.292 184.816)" fill="#EA61E5"/>
<rect width="18.9597" height="8.70644" transform="matrix(-1 0 0 1 92.3428 176.11)" fill="#7D0AD7"/>
<path d="M103.266 119.635C112.653 136.683 85.4791 150.967 88.2536 171.775C75.3711 178.287 73.7262 158.809 64.3393 141.761C54.9525 124.712 77.8327 85.4236 90.7152 78.9112C90.9929 78.1557 90.5852 87.5917 93.2752 97.8734C95.9653 108.155 99.6072 112.988 103.266 119.635Z" fill="#F29871"/>
<path d="M366.82 55.5134C379.682 78.8739 345.274 97.0168 349.776 125.174C333.453 133.426 330.466 107.107 317.604 83.7468C304.742 60.3864 332.503 8.36818 348.826 0.116294C349.151 -0.890719 349.044 11.8102 352.97 25.7771C356.895 39.744 361.806 46.4068 366.82 55.5134Z" fill="#F29871"/>
<path d="M386.803 204.509C393.467 176.432 372.173 149.494 343.316 149.494V149.494C315.089 149.494 293.93 175.336 299.5 203.008L301.732 214.097C302.746 219.135 307.172 222.759 312.311 222.759H374.108C379.01 222.759 383.271 219.391 384.403 214.62L386.803 204.509Z" fill="#AAE0FF"/>
<rect width="51.8935" height="11.2158" transform="matrix(-1 0 0 1 369.844 146.593)" fill="#7D0AD7"/>
<rect width="8.72311" height="58.8508" transform="matrix(-1 0 0 1 348.657 135.762)" fill="#EA61E5"/>
<rect width="12.8621" height="5.9064" transform="matrix(-1 0 0 1 350.726 129.856)" fill="#7D0AD7"/>
</svg>
