<svg width="767" height="253" viewBox="0 0 767 253" fill="none" xmlns="http://www.w3.org/2000/svg">
<path d="M57.7822 57.3951L137.907 57.0518L166.201 160.856C178.623 206.428 144.45 251.367 97.2206 251.569V251.569C49.1685 251.775 14.4454 205.663 27.9251 159.545L57.7822 57.3951Z" fill="#AAE0FF"/>
<rect width="80.1465" height="36.1973" transform="matrix(0.999991 -0.00428356 0.00466652 0.999989 57.6018 22.0176)" fill="#AAE0FF"/>
<rect width="111.6" height="21.613" rx="10.8065" transform="matrix(0.999991 -0.00428356 0.00466652 0.999989 40.4446 0.478027)" fill="#AAE0FF"/>
<path d="M201.782 57.3951L281.907 57.0518L310.201 160.856C322.623 206.428 288.45 251.367 241.221 251.569V251.569C193.168 251.775 158.445 205.663 171.925 159.545L201.782 57.3951Z" fill="#AAE0FF"/>
<rect width="80.1465" height="36.1973" transform="matrix(0.999991 -0.00428356 0.00466652 0.999989 201.602 22.0176)" fill="#AAE0FF"/>
<rect width="111.6" height="21.613" rx="10.8065" transform="matrix(0.999991 -0.00428356 0.00466652 0.999989 184.445 0.478027)" fill="#AAE0FF"/>
<path d="M345.782 57.3951L425.907 57.0518L454.201 160.856C466.623 206.428 432.45 251.367 385.221 251.569V251.569C337.168 251.775 302.445 205.663 315.925 159.545L345.782 57.3951Z" fill="#AAE0FF"/>
<rect width="80.1465" height="36.1973" transform="matrix(0.999991 -0.00428356 0.00466652 0.999989 345.602 22.0176)" fill="#AAE0FF"/>
<rect width="111.6" height="21.613" rx="10.8065" transform="matrix(0.999991 -0.00428356 0.00466652 0.999989 328.445 0.478027)" fill="#AAE0FF"/>
<path d="M489.782 57.3951L569.907 57.0518L598.201 160.856C610.623 206.428 576.45 251.367 529.221 251.569V251.569C481.168 251.775 446.445 205.663 459.925 159.545L489.782 57.3951Z" fill="#AAE0FF"/>
<rect width="80.1465" height="36.1973" transform="matrix(0.999991 -0.00428356 0.00466652 0.999989 489.602 22.0176)" fill="#AAE0FF"/>
<rect width="111.6" height="21.613" rx="10.8065" transform="matrix(0.999991 -0.00428356 0.00466652 0.999989 472.445 0.478027)" fill="#AAE0FF"/>
<path d="M633.782 57.3951L713.907 57.0518L742.201 160.856C754.623 206.428 720.45 251.367 673.221 251.569V251.569C625.168 251.775 590.445 205.663 603.925 159.545L633.782 57.3951Z" fill="#AAE0FF"/>
<rect width="80.1465" height="36.1973" transform="matrix(0.999991 -0.00428356 0.00466652 0.999989 633.602 22.0176)" fill="#AAE0FF"/>
<rect width="111.6" height="21.613" rx="10.8065" transform="matrix(0.999991 -0.00428356 0.00466652 0.999989 616.445 0.478027)" fill="#AAE0FF"/>
<path fill-rule="evenodd" clip-rule="evenodd" d="M311.345 164.399C320.982 208.724 287.347 251.306 241.339 251.503C193.204 251.709 158.426 205.511 171.94 159.317L172.461 157.538C174.909 156.281 187.89 151.274 204.797 175.435C209.039 181.497 217.087 176.504 228.142 169.645C244.971 159.204 268.77 144.439 296.717 157.773C302.915 160.73 307.703 162.885 311.345 164.399Z" fill="url(#paint0_radial_261_97)"/>
<path fill-rule="evenodd" clip-rule="evenodd" d="M455.345 165.399C464.982 209.724 431.347 252.306 385.339 252.503C337.204 252.709 302.426 206.511 315.94 160.317L322.987 136.231C326.296 132.929 331.103 133.44 338.031 143.34C342.803 150.16 354.534 149.571 370.176 148.786C389.604 147.812 415.065 146.534 440.717 158.773C446.915 161.73 451.703 163.885 455.345 165.399Z" fill="url(#paint1_radial_261_97)"/>
<path fill-rule="evenodd" clip-rule="evenodd" d="M588.668 124.883L598.422 160.632C610.876 206.279 576.649 251.3 529.339 251.503C481.204 251.709 446.426 205.511 459.94 159.317L466.987 135.231C470.296 131.929 475.103 132.44 482.031 142.34C486.284 148.419 495.593 142.85 508.175 135.322C527.239 123.915 553.817 108.013 581.711 121.322C584.253 122.534 586.566 123.722 588.668 124.883Z" fill="url(#paint2_radial_261_97)"/>
<path fill-rule="evenodd" clip-rule="evenodd" d="M731.82 122.772L742.422 161.632C754.876 207.279 720.649 252.3 673.339 252.503C625.204 252.709 590.426 206.511 603.94 160.317L617.922 112.528C620.49 112.033 623.504 113.776 627.033 118.819C631.507 125.214 641.137 122.395 654.215 118.568C672.407 113.243 697.27 105.966 724.209 118.819C727.01 120.155 729.539 121.474 731.82 122.772Z" fill="url(#paint3_radial_261_97)"/>
<path fill-rule="evenodd" clip-rule="evenodd" d="M167.54 166.206C176.512 210.193 143.027 252.186 97.3393 252.381C49.1974 252.587 14.4177 206.376 27.9451 160.178L28.444 158.475C30.893 157.219 43.8771 152.215 60.7876 176.361C65.0521 182.45 69.636 179.787 76.5382 175.776C86.9573 169.723 102.659 160.6 130.519 173.881C162.377 189.067 167.467 175.904 167.54 166.206Z" fill="url(#paint4_radial_261_97)"/>
<defs>
<radialGradient id="paint0_radial_261_97" cx="0" cy="0" r="1" gradientUnits="userSpaceOnUse" gradientTransform="translate(239.82 157.483) rotate(89.7324) scale(100.301 97.3902)">
<stop offset="0.251042" stop-color="#04DD8F"/>
<stop offset="1" stop-color="#59C2FD"/>
</radialGradient>
<radialGradient id="paint1_radial_261_97" cx="0" cy="0" r="1" gradientUnits="userSpaceOnUse" gradientTransform="translate(383.82 158.483) rotate(89.7324) scale(100.301 97.3902)">
<stop offset="0.251042" stop-color="#04DD8F"/>
<stop offset="1" stop-color="#59C2FD"/>
</radialGradient>
<radialGradient id="paint2_radial_261_97" cx="0" cy="0" r="1" gradientUnits="userSpaceOnUse" gradientTransform="translate(527.82 157.483) rotate(89.7324) scale(100.301 97.3902)">
<stop offset="0.251042" stop-color="#04DD8F"/>
<stop offset="1" stop-color="#59C2FD"/>
</radialGradient>
<radialGradient id="paint3_radial_261_97" cx="0" cy="0" r="1" gradientUnits="userSpaceOnUse" gradientTransform="translate(671.82 158.483) rotate(89.7324) scale(100.301 97.3902)">
<stop offset="0.251042" stop-color="#04DD8F"/>
<stop offset="1" stop-color="#59C2FD"/>
</radialGradient>
<radialGradient id="paint4_radial_261_97" cx="0" cy="0" r="1" gradientUnits="userSpaceOnUse" gradientTransform="translate(95.8204 158.42) rotate(89.7323) scale(100.238 97.3902)">
<stop offset="0.251042" stop-color="#04DD8F"/>
<stop offset="1" stop-color="#59C2FD"/>
</radialGradient>
</defs>
</svg>
