<svg width="767" height="253" viewBox="0 0 767 253" fill="none" xmlns="http://www.w3.org/2000/svg">
<path d="M57.8374 57.3991L138.039 57.0555L166.339 160.794C178.782 206.402 144.584 251.385 97.3138 251.587C49.2201 251.793 14.471 205.635 27.9735 159.48L57.8374 57.3991Z" fill="#AAE0FF"/>
<rect width="80.2231" height="36.2" transform="matrix(0.999991 -0.00427978 0.00467063 0.999989 57.657 22.0192)" fill="#AAE0FF"/>
<rect width="111.707" height="21.6146" rx="10.8073" transform="matrix(0.999991 -0.00427946 0.00467098 0.999989 40.4832 0.478027)" fill="#AAE0FF"/>
<path d="M201.837 57.3991L282.039 57.0555L310.339 160.794C322.782 206.402 288.584 251.385 241.314 251.587C193.22 251.793 158.471 205.635 171.974 159.48L201.837 57.3991Z" fill="#AAE0FF"/>
<rect width="80.2231" height="36.2" transform="matrix(0.999991 -0.00427978 0.00467063 0.999989 201.657 22.0192)" fill="#AAE0FF"/>
<rect width="111.707" height="21.6146" rx="10.8073" transform="matrix(0.999991 -0.00427946 0.00467098 0.999989 184.483 0.478027)" fill="#AAE0FF"/>
<path d="M345.837 57.3991L426.039 57.0555L454.339 160.794C466.782 206.402 432.584 251.385 385.314 251.587C337.22 251.793 302.471 205.635 315.974 159.48L345.837 57.3991Z" fill="#AAE0FF"/>
<rect width="80.2231" height="36.2" transform="matrix(0.999991 -0.00427978 0.00467063 0.999989 345.657 22.0192)" fill="#AAE0FF"/>
<rect width="111.707" height="21.6146" rx="10.8073" transform="matrix(0.999991 -0.00427946 0.00467098 0.999989 328.483 0.478027)" fill="#AAE0FF"/>
<path d="M489.837 57.3991L570.039 57.0555L598.339 160.794C610.782 206.402 576.584 251.385 529.314 251.587C481.22 251.793 446.471 205.635 459.974 159.48L489.837 57.3991Z" fill="#AAE0FF"/>
<rect width="80.2231" height="36.2" transform="matrix(0.999991 -0.00427978 0.00467063 0.999989 489.657 22.0192)" fill="#AAE0FF"/>
<rect width="111.707" height="21.6146" rx="10.8073" transform="matrix(0.999991 -0.00427946 0.00467098 0.999989 472.483 0.478027)" fill="#AAE0FF"/>
<path d="M633.837 57.3991L714.039 57.0555L742.339 160.794C754.782 206.402 720.584 251.385 673.314 251.587C625.22 251.793 590.471 205.635 603.974 159.48L633.837 57.3991Z" fill="#AAE0FF"/>
<rect width="80.2231" height="36.2" transform="matrix(0.999991 -0.00427978 0.00467063 0.999989 633.657 22.0192)" fill="#AAE0FF"/>
<rect width="111.707" height="21.6146" rx="10.8073" transform="matrix(0.999991 -0.00427946 0.00467098 0.999989 616.483 0.478027)" fill="#AAE0FF"/>
<path fill-rule="evenodd" clip-rule="evenodd" d="M311.345 164.399C320.982 208.724 287.347 251.306 241.339 251.503C193.204 251.709 158.426 205.511 171.94 159.317L172.461 157.538C174.909 156.281 187.89 151.274 204.797 175.435C209.039 181.497 217.087 176.504 228.142 169.645C244.971 159.204 268.77 144.439 296.717 157.773C302.915 160.73 307.703 162.885 311.345 164.399Z" fill="url(#paint0_radial_261_97)"/>
<path fill-rule="evenodd" clip-rule="evenodd" d="M455.345 165.399C464.982 209.724 431.347 252.306 385.339 252.503C337.204 252.709 302.426 206.511 315.94 160.317L322.987 136.231C326.296 132.929 331.103 133.44 338.031 143.34C342.803 150.16 354.534 149.571 370.176 148.786C389.604 147.812 415.065 146.534 440.717 158.773C446.915 161.73 451.703 163.885 455.345 165.399Z" fill="url(#paint1_radial_261_97)"/>
<path fill-rule="evenodd" clip-rule="evenodd" d="M588.668 124.883L598.422 160.632C610.876 206.279 576.649 251.3 529.339 251.503C481.204 251.709 446.426 205.511 459.94 159.317L466.987 135.231C470.296 131.929 475.103 132.44 482.031 142.34C486.284 148.419 495.593 142.85 508.175 135.322C527.239 123.915 553.817 108.013 581.711 121.322C584.253 122.534 586.566 123.722 588.668 124.883Z" fill="url(#paint2_radial_261_97)"/>
<path fill-rule="evenodd" clip-rule="evenodd" d="M731.82 122.772L742.422 161.632C754.876 207.279 720.649 252.3 673.339 252.503C625.204 252.709 590.426 206.511 603.94 160.317L617.922 112.528C620.49 112.033 623.504 113.776 627.033 118.819C631.507 125.214 641.137 122.395 654.215 118.568C672.407 113.243 697.27 105.966 724.209 118.819C727.01 120.155 729.539 121.474 731.82 122.772Z" fill="url(#paint3_radial_261_97)"/>
<path fill-rule="evenodd" clip-rule="evenodd" d="M167.54 166.206C176.512 210.193 143.027 252.186 97.3393 252.381C49.1974 252.587 14.4177 206.376 27.9451 160.178L28.444 158.475C30.893 157.219 43.8771 152.215 60.7876 176.361C65.0521 182.45 69.636 179.787 76.5382 175.776C86.9573 169.723 102.659 160.6 130.519 173.881C162.377 189.067 167.467 175.904 167.54 166.206Z" fill="url(#paint4_radial_261_97)"/>
<defs>
<radialGradient id="paint0_radial_261_97" cx="0" cy="0" r="1" gradientUnits="userSpaceOnUse" gradientTransform="translate(239.82 157.483) rotate(89.7324) scale(100.301 97.3902)">
<stop offset="0.251042" stop-color="#04DD8F"/>
<stop offset="1" stop-color="#59C2FD"/>
</radialGradient>
<radialGradient id="paint1_radial_261_97" cx="0" cy="0" r="1" gradientUnits="userSpaceOnUse" gradientTransform="translate(383.82 158.483) rotate(89.7324) scale(100.301 97.3902)">
<stop offset="0.251042" stop-color="#04DD8F"/>
<stop offset="1" stop-color="#59C2FD"/>
</radialGradient>
<radialGradient id="paint2_radial_261_97" cx="0" cy="0" r="1" gradientUnits="userSpaceOnUse" gradientTransform="translate(527.82 157.483) rotate(89.7324) scale(100.301 97.3902)">
<stop offset="0.251042" stop-color="#04DD8F"/>
<stop offset="1" stop-color="#59C2FD"/>
</radialGradient>
<radialGradient id="paint3_radial_261_97" cx="0" cy="0" r="1" gradientUnits="userSpaceOnUse" gradientTransform="translate(671.82 158.483) rotate(89.7324) scale(100.301 97.3902)">
<stop offset="0.251042" stop-color="#04DD8F"/>
<stop offset="1" stop-color="#59C2FD"/>
</radialGradient>
<radialGradient id="paint4_radial_261_97" cx="0" cy="0" r="1" gradientUnits="userSpaceOnUse" gradientTransform="translate(95.8204 158.42) rotate(89.7323) scale(100.238 97.3902)">
<stop offset="0.251042" stop-color="#04DD8F"/>
<stop offset="1" stop-color="#59C2FD"/>
</radialGradient>
</defs>
</svg>
