<svg width="628" height="309" viewBox="0 0 628 309" fill="none" xmlns="http://www.w3.org/2000/svg">
<path fill-rule="evenodd" clip-rule="evenodd" d="M37.1362 60C35.0344 60 33.3305 61.7039 33.3305 63.8057C33.3305 65.9075 35.0344 67.6114 37.1362 67.6114H37.9069V108.863C26.3439 112.936 16.2497 120.221 10.0389 131.013C4.79726 140.121 1 150.124 1 160.62C1 202.906 28.0813 307.966 61.4878 307.966C94.8943 307.966 121.976 202.906 121.976 160.62C121.976 150.187 118.362 140.241 113.315 131.177C107.16 120.126 96.8961 112.74 85.1206 108.687V67.6114H85.8394C87.9412 67.6114 89.6451 65.9075 89.6451 63.8057C89.6451 61.7039 87.9412 60 85.8394 60H37.1362Z" fill="#AAE0FF"/>
<path fill-rule="evenodd" clip-rule="evenodd" d="M163.136 60C161.034 60 159.331 61.7039 159.331 63.8057C159.331 65.9075 161.034 67.6114 163.136 67.6114H163.907V108.863C152.344 112.936 142.25 120.221 136.039 131.013C130.797 140.121 127 150.124 127 160.62C127 202.906 154.081 307.966 187.488 307.966C220.894 307.966 247.976 202.906 247.976 160.62C247.976 150.187 244.362 140.241 239.315 131.177C233.16 120.126 222.896 112.74 211.121 108.687V67.6114H211.839C213.941 67.6114 215.645 65.9075 215.645 63.8057C215.645 61.7039 213.941 60 211.839 60H163.136Z" fill="#AAE0FF"/>
<path fill-rule="evenodd" clip-rule="evenodd" d="M289.136 60C287.034 60 285.331 61.7039 285.331 63.8057C285.331 65.9075 287.034 67.6114 289.136 67.6114H289.907V108.863C278.344 112.936 268.25 120.221 262.039 131.013C256.797 140.121 253 150.124 253 160.62C253 202.906 280.081 307.966 313.488 307.966C346.894 307.966 373.976 202.906 373.976 160.62C373.976 150.187 370.362 140.241 365.315 131.177C359.16 120.126 348.896 112.74 337.121 108.687V67.6114H337.839C339.941 67.6114 341.645 65.9075 341.645 63.8057C341.645 61.7039 339.941 60 337.839 60H289.136Z" fill="#AAE0FF"/>
<path fill-rule="evenodd" clip-rule="evenodd" d="M415.136 60C413.034 60 411.331 61.7039 411.331 63.8057C411.331 65.9075 413.034 67.6114 415.136 67.6114H415.907V108.863C404.344 112.936 394.25 120.221 388.039 131.013C382.797 140.121 379 150.124 379 160.62C379 202.906 406.081 307.966 439.488 307.966C472.894 307.966 499.976 202.906 499.976 160.62C499.976 150.187 496.362 140.241 491.315 131.177C485.16 120.126 474.896 112.74 463.121 108.687V67.6114H463.839C465.941 67.6114 467.645 65.9075 467.645 63.8057C467.645 61.7039 465.941 60 463.839 60H415.136Z" fill="#AAE0FF"/>
<path fill-rule="evenodd" clip-rule="evenodd" d="M541.136 60C539.034 60 537.331 61.7039 537.331 63.8057C537.331 65.9075 539.034 67.6114 541.136 67.6114H541.907V108.863C530.344 112.936 520.25 120.221 514.039 131.013C508.797 140.121 505 150.124 505 160.62C505 202.906 532.081 307.966 565.488 307.966C598.894 307.966 625.976 202.906 625.976 160.62C625.976 150.187 622.362 140.241 617.315 131.177C611.16 120.126 600.896 112.74 589.121 108.687V67.6114H589.839C591.941 67.6114 593.645 65.9075 593.645 63.8057C593.645 61.7039 591.941 60 589.839 60H541.136Z" fill="#AAE0FF"/>
<path fill-rule="evenodd" clip-rule="evenodd" d="M47.9034 35.3222C32.3715 40.1204 30.5177 49.1577 31.9428 63.1654C32.7057 70.6648 37.4233 75.6929 41.8587 80.4202C45.7079 84.5228 49.3445 88.3988 49.9996 93.467C50.593 98.0585 48.7879 99.0695 46.8789 100.139C44.2526 101.609 41.4297 103.19 44.3846 114.356C47.6786 126.802 60.0777 155.196 68.1716 167.039C63.7181 167.726 59.3956 168.639 55.1796 169.53C39.1518 172.916 24.6632 175.977 10.3698 165.035C6.30442 161.923 2.85238 159.786 0.636592 160.155C0.617866 160.678 0.608355 161.202 0.608355 161.727C0.608355 203.991 27.6897 309 61.0962 309C94.5027 309 121.584 203.991 121.584 161.727C121.584 159.913 121.475 158.113 121.267 156.331C118.91 154.98 115.036 156.643 109.68 158.941C102.789 161.898 93.4457 165.907 81.7235 165.907C79.581 165.907 77.4704 166.003 75.3891 166.173C75.2026 161.846 73.7256 156.077 72.1459 149.906C69.7772 140.654 67.1777 130.5 68.3524 122.957C69.6989 114.31 73.972 107.749 77.5855 102.201C80.8709 97.1569 83.611 92.9498 83.1101 88.7736C82.1834 81.0469 80.0755 81.5932 76.9487 82.4035C73.8218 83.2137 69.676 84.288 64.6733 77.6176C54.668 64.2767 59.238 65.4225 59.238 65.4225C59.238 65.4225 88.4571 73.2916 96 42.573C103.543 11.8543 48.5926 -6.88764 41.3476 2.37666C38.0133 6.64025 42.4262 12.9411 46.6478 18.9688C51.5991 26.0385 56.2872 32.7323 47.9034 35.3222Z" fill="url(#paint0_linear_250_33)"/>
<path fill-rule="evenodd" clip-rule="evenodd" d="M299.903 35.3222C284.372 40.1204 282.518 49.1577 283.943 63.1654C284.706 70.6648 289.423 75.6929 293.859 80.4202C297.708 84.5228 301.345 88.3988 302 93.467C302.593 98.0585 300.788 99.0695 298.879 100.139C296.253 101.609 293.43 103.19 296.385 114.356C298.65 122.917 305.224 139.023 311.741 152.099C303.937 152.71 295.443 152.076 287.324 151.471C272.4 150.358 258.74 149.339 252.939 156.313C252.723 158.101 252.608 159.906 252.608 161.727C252.608 203.991 279.69 309 313.096 309C346.503 309 373.584 203.991 373.584 161.727C373.584 156.814 372.782 152.01 371.407 147.355C364.191 133.693 349.473 126.539 334.5 142.93C331.642 146.058 328.093 148.21 324.082 149.657C321.731 140.472 319.188 130.433 320.352 122.957C321.699 114.31 325.972 107.749 329.585 102.201C332.871 97.1569 335.611 92.9498 335.11 88.7736C334.183 81.0469 332.076 81.5932 328.949 82.4035C325.822 83.2137 321.676 84.288 316.673 77.6176C306.668 64.2767 311.238 65.4225 311.238 65.4225C311.238 65.4225 340.457 73.2916 348 42.573C355.543 11.8543 300.593 -6.88764 293.348 2.37666C290.013 6.64025 294.426 12.9411 298.648 18.9688C303.599 26.0385 308.287 32.7323 299.903 35.3222Z" fill="url(#paint1_linear_250_33)"/>
<path fill-rule="evenodd" clip-rule="evenodd" d="M551.903 35.3223C536.371 40.1204 534.517 49.1577 535.942 63.1654C536.705 70.6648 541.423 75.6929 545.858 80.4202C549.708 84.5228 553.344 88.3988 553.999 93.467C554.593 98.0585 552.788 99.0695 550.879 100.139C548.252 101.609 545.429 103.19 548.384 114.356C550.65 122.917 557.224 139.023 563.741 152.099C555.936 152.71 547.443 152.076 539.324 151.471C524.4 150.358 510.74 149.339 504.939 156.313C504.723 158.101 504.608 159.907 504.608 161.727C504.608 203.991 531.69 309 565.096 309C598.503 309 625.584 203.991 625.584 161.727C625.584 156.814 624.782 152.009 623.406 147.354C616.19 133.693 601.472 126.54 586.5 142.93C583.642 146.059 580.093 148.21 576.082 149.657C573.73 140.472 571.188 130.433 572.352 122.957C573.699 114.31 577.972 107.749 581.585 102.201C584.871 97.1569 587.611 92.9498 587.11 88.7736C586.183 81.0469 584.075 81.5932 580.948 82.4035C577.821 83.2137 573.676 84.288 568.673 77.6176C558.668 64.2767 563.238 65.4225 563.238 65.4225C563.238 65.4225 592.457 73.2916 600 42.573C607.543 11.8543 552.592 -6.88764 545.347 2.37666C542.013 6.64025 546.426 12.9411 550.647 18.9688C555.599 26.0385 560.287 32.7323 551.903 35.3223Z" fill="url(#paint2_linear_250_33)"/>
<path fill-rule="evenodd" clip-rule="evenodd" d="M425.903 35.3222C410.371 40.1204 408.518 49.1577 409.943 63.1654C410.706 70.6648 415.423 75.6929 419.859 80.4202C423.708 84.5228 427.344 88.3988 427.999 93.467C428.593 98.0585 426.788 99.0695 424.879 100.139C422.252 101.609 419.43 103.19 422.384 114.356C424.13 120.95 428.431 132.022 433.294 142.736C414.636 133.781 397.658 126.665 387.176 132.962C382.18 141.842 378.608 151.553 378.608 161.727C378.608 203.991 405.69 309 439.096 309C472.503 309 499.584 203.991 499.584 161.727C499.584 159.92 499.476 158.128 499.27 156.352C497.001 154.703 493.386 155.547 488.685 156.644C481.725 158.27 472.384 160.451 461.5 155.923C457.822 154.393 454.118 152.721 450.422 150.988C450.331 150.629 450.238 150.268 450.146 149.906C447.777 140.654 445.178 130.5 446.352 122.957C447.699 114.31 451.972 107.749 455.585 102.201C458.871 97.1569 461.611 92.9498 461.11 88.7736C460.183 81.0469 458.075 81.5932 454.949 82.4035C451.822 83.2137 447.676 84.288 442.673 77.6176C432.668 64.2767 437.238 65.4225 437.238 65.4225C437.238 65.4225 466.457 73.2916 474 42.573C481.543 11.8543 426.592 -6.88764 419.347 2.37666C416.013 6.64025 420.426 12.9411 424.648 18.9688C429.599 26.0385 434.287 32.7323 425.903 35.3222Z" fill="url(#paint3_linear_250_33)"/>
<path fill-rule="evenodd" clip-rule="evenodd" d="M173.903 35.3222C158.371 40.1204 156.518 49.1577 157.943 63.1654C158.706 70.6648 163.423 75.6929 167.859 80.4202C171.708 84.5228 175.344 88.3988 175.999 93.467C176.593 98.0585 174.788 99.0695 172.879 100.139C170.253 101.609 167.43 103.19 170.385 114.356C173.479 126.05 184.611 151.82 192.659 164.716C186.684 163.854 180.735 162.63 174.808 161.411C158.772 158.111 142.898 154.845 127.112 158.866C126.968 158.902 126.828 158.948 126.693 159.001C126.637 159.906 126.608 160.814 126.608 161.727C126.608 203.991 153.69 309 187.096 309C220.503 309 247.584 203.991 247.584 161.727C247.584 159.913 247.475 158.113 247.268 156.331C244.91 154.98 241.036 156.643 235.68 158.941C228.789 161.898 219.446 165.907 207.724 165.907C205.6 165.907 203.479 165.824 201.362 165.673C201.09 161.407 199.665 155.842 198.146 149.906C195.777 140.654 193.178 130.5 194.352 122.957C195.699 114.31 199.972 107.749 203.585 102.201C206.871 97.1569 209.611 92.9498 209.11 88.7736C208.183 81.0469 206.075 81.5932 202.949 82.4035C199.822 83.2137 195.676 84.288 190.673 77.6176C180.668 64.2767 185.238 65.4225 185.238 65.4225C185.238 65.4225 214.457 73.2916 222 42.573C229.543 11.8543 174.592 -6.88764 167.348 2.37666C164.013 6.64025 168.426 12.9411 172.648 18.9688C177.599 26.0385 182.287 32.7323 173.903 35.3222Z" fill="url(#paint4_linear_250_33)"/>
<defs>
<linearGradient id="paint0_linear_250_33" x1="78.9393" y1="-0.657993" x2="78.9393" y2="292.065" gradientUnits="userSpaceOnUse">
<stop offset="0.0218751" stop-color="#7D0AD7" stop-opacity="0.42"/>
<stop offset="0.271875" stop-color="#7D0AD7"/>
<stop offset="0.823958" stop-color="#EA61E7"/>
</linearGradient>
<linearGradient id="paint1_linear_250_33" x1="330.939" y1="-0.657993" x2="330.939" y2="292.065" gradientUnits="userSpaceOnUse">
<stop offset="0.0218751" stop-color="#7D0AD7" stop-opacity="0.42"/>
<stop offset="0.271875" stop-color="#7D0AD7"/>
<stop offset="0.823958" stop-color="#EA61E7"/>
</linearGradient>
<linearGradient id="paint2_linear_250_33" x1="582.939" y1="-0.657993" x2="582.939" y2="292.065" gradientUnits="userSpaceOnUse">
<stop offset="0.0218751" stop-color="#7D0AD7" stop-opacity="0.42"/>
<stop offset="0.271875" stop-color="#7D0AD7"/>
<stop offset="0.823958" stop-color="#EA61E7"/>
</linearGradient>
<linearGradient id="paint3_linear_250_33" x1="456.939" y1="-0.657993" x2="456.939" y2="292.065" gradientUnits="userSpaceOnUse">
<stop offset="0.0218751" stop-color="#7D0AD7" stop-opacity="0.42"/>
<stop offset="0.271875" stop-color="#7D0AD7"/>
<stop offset="0.823958" stop-color="#EA61E7"/>
</linearGradient>
<linearGradient id="paint4_linear_250_33" x1="204.32" y1="-0.657993" x2="204.32" y2="292.065" gradientUnits="userSpaceOnUse">
<stop offset="0.0218751" stop-color="#7D0AD7" stop-opacity="0.42"/>
<stop offset="0.271875" stop-color="#7D0AD7"/>
<stop offset="0.823958" stop-color="#EA61E7"/>
</linearGradient>
</defs>
</svg>
