<svg width="194" height="228" viewBox="0 0 194 228" fill="none" xmlns="http://www.w3.org/2000/svg">
<mask id="path-1-inside-1_277_112" fill="white">
<path fill-rule="evenodd" clip-rule="evenodd" d="M182.69 28.8892H9.00391V144.641C9.00391 144.641 9.00391 144.641 9.00391 144.641C9.00398 190.592 47.8848 227.844 95.8468 227.844C143.809 227.844 182.69 190.592 182.69 144.641C182.69 144.641 182.69 144.641 182.69 144.641V28.8892Z"/>
</mask>
<path fill-rule="evenodd" clip-rule="evenodd" d="M182.69 28.8892H9.00391V144.641C9.00391 144.641 9.00391 144.641 9.00391 144.641C9.00398 190.592 47.8848 227.844 95.8468 227.844C143.809 227.844 182.69 190.592 182.69 144.641C182.69 144.641 182.69 144.641 182.69 144.641V28.8892Z" fill="#AAE0FF"/>
<path d="M9.00391 28.8892V27.8892H8.00391V28.8892H9.00391ZM182.69 28.8892H183.69V27.8892H182.69V28.8892ZM9.00391 144.641H8.00391H9.00391ZM182.69 144.641H183.69H182.69ZM9.00391 29.8892H182.69V27.8892H9.00391V29.8892ZM10.0039 144.641V28.8892H8.00391V144.641H10.0039ZM8.00391 144.641C8.00391 144.641 8.00391 144.641 8.00391 144.641C8.00391 144.641 8.00391 144.641 8.00391 144.641C8.00391 144.641 8.00391 144.641 8.00391 144.641V144.641C8.00391 144.641 8.00391 144.641 8.00391 144.641V144.641C8.00391 144.641 8.00391 144.641 8.00391 144.641V144.641C8.00391 144.641 8.00391 144.641 8.00391 144.641C8.00391 144.641 8.00391 144.641 8.00391 144.641V144.641C8.00391 144.641 8.00391 144.641 8.00391 144.641V144.641C8.00391 144.641 8.00391 144.641 8.00391 144.641V144.641C8.00391 144.641 8.00391 144.641 8.00391 144.641C8.00391 144.641 8.00391 144.641 8.00391 144.641C8.00391 144.641 8.00391 144.641 8.00391 144.641H10.0039C10.0039 144.641 10.0039 144.641 10.0039 144.641C10.0039 144.641 10.0039 144.641 10.0039 144.641C10.0039 144.641 10.0039 144.641 10.0039 144.641V144.641C10.0039 144.641 10.0039 144.641 10.0039 144.641V144.641C10.0039 144.641 10.0039 144.641 10.0039 144.641V144.641C10.0039 144.641 10.0039 144.641 10.0039 144.641C10.0039 144.641 10.0039 144.641 10.0039 144.641V144.641C10.0039 144.641 10.0039 144.641 10.0039 144.641V144.641C10.0039 144.641 10.0039 144.641 10.0039 144.641V144.641C10.0039 144.641 10.0039 144.641 10.0039 144.641C10.0039 144.641 10.0039 144.641 10.0039 144.641C10.0039 144.641 10.0039 144.641 10.0039 144.641H8.00391ZM8.00391 144.641C8.00398 191.185 47.3733 228.844 95.8468 228.844V226.844C48.3963 226.844 10.004 190 10.0039 144.641H8.00391ZM95.8468 228.844C144.32 228.844 183.69 191.185 183.69 144.641H181.69C181.69 190 143.297 226.844 95.8468 226.844V228.844ZM183.69 144.641C183.69 144.641 183.69 144.641 183.69 144.641C183.69 144.641 183.69 144.641 183.69 144.641C183.69 144.641 183.69 144.641 183.69 144.641V144.641C183.69 144.641 183.69 144.641 183.69 144.641V144.641C183.69 144.641 183.69 144.641 183.69 144.641V144.641C183.69 144.641 183.69 144.641 183.69 144.641C183.69 144.641 183.69 144.641 183.69 144.641V144.641C183.69 144.641 183.69 144.641 183.69 144.641V144.641C183.69 144.641 183.69 144.641 183.69 144.641V144.641C183.69 144.641 183.69 144.641 183.69 144.641C183.69 144.641 183.69 144.641 183.69 144.641C183.69 144.641 183.69 144.641 183.69 144.641H181.69C181.69 144.641 181.69 144.641 181.69 144.641C181.69 144.641 181.69 144.641 181.69 144.641C181.69 144.641 181.69 144.641 181.69 144.641V144.641C181.69 144.641 181.69 144.641 181.69 144.641V144.641C181.69 144.641 181.69 144.641 181.69 144.641V144.641C181.69 144.641 181.69 144.641 181.69 144.641C181.69 144.641 181.69 144.641 181.69 144.641V144.641C181.69 144.641 181.69 144.641 181.69 144.641V144.641C181.69 144.641 181.69 144.641 181.69 144.641V144.641C181.69 144.641 181.69 144.641 181.69 144.641C181.69 144.641 181.69 144.641 181.69 144.641C181.69 144.641 181.69 144.641 181.69 144.641H183.69ZM181.69 28.8892V144.641H183.69V28.8892H181.69Z" fill="#008BDA" mask="url(#path-1-inside-1_277_112)"/>
<mask id="mask0_277_112" style="mask-type:alpha" maskUnits="userSpaceOnUse" x="10" y="28" width="174" height="200">
<path fill-rule="evenodd" clip-rule="evenodd" d="M96.9112 227.682C144.873 227.682 183.754 190.43 183.754 144.479H10.0684C10.0684 190.43 48.9492 227.682 96.9112 227.682Z" fill="#BDE7FF"/>
<rect x="10.0684" y="28.7271" width="173.686" height="115.752" fill="#BDE7FF"/>
</mask>
<g mask="url(#mask0_277_112)">
<path d="M121.058 209.123C121.058 218.966 115.192 228.249 108.303 228.249C101.414 228.249 95.8286 220.27 95.8286 210.427C95.8286 200.584 118.298 187.866 125.188 187.866C125.478 187.588 123.134 191.757 121.891 197.014C120.648 202.272 121.058 205.286 121.058 209.123Z" fill="#00B574"/>
<path d="M91.6748 168.727C91.6748 178.57 85.8088 187.853 78.9195 187.853C72.0302 187.853 66.4453 179.874 66.4453 170.031C66.4453 160.188 88.9147 147.47 95.804 147.47C96.0942 147.192 93.7502 151.361 92.5074 156.618C91.2645 161.876 91.6748 164.89 91.6748 168.727Z" fill="#00B574"/>
<path d="M113.77 193.896C113.77 209.556 123.428 224.325 134.771 224.325C146.115 224.325 155.311 211.63 155.311 195.971C155.311 180.311 118.314 160.076 106.971 160.076C106.493 159.634 110.352 166.266 112.399 174.631C114.445 182.996 113.77 187.792 113.77 193.896Z" fill="#20EFA5"/>
<path d="M137.948 120.55C137.948 136.21 147.607 150.979 158.95 150.979C170.294 150.979 179.489 138.284 179.489 122.624C179.489 106.965 142.493 86.7301 131.15 86.7301C130.672 86.288 134.531 92.92 136.578 101.285C138.624 109.65 137.948 114.445 137.948 120.55Z" fill="#20EFA5"/>
<path d="M64.9323 162.96C64.9323 172.802 59.0675 182.085 52.1794 182.085C45.2914 182.085 49.9529 176.433 49.9529 166.59C49.9529 156.747 62.1728 141.702 69.0608 141.702C69.351 141.425 67.0074 145.593 65.7648 150.851C64.5222 156.108 64.9323 159.123 64.9323 162.96Z" fill="#00B574"/>
<path d="M150.857 152.793C136.348 167.475 132.689 190.416 144.463 201.096C156.237 211.775 156.601 196.116 171.109 181.434C185.618 166.752 186.908 125.362 175.134 114.683C175.048 113.818 172.909 123.67 167.283 133.439C161.657 143.209 156.513 147.069 150.857 152.793Z" fill="#00B574"/>
<path d="M33.1918 128.42C38.7357 147.929 57.2845 162.853 72.9286 158.773C88.5726 154.692 74.8018 146.25 69.2579 126.741C63.7141 107.233 27.4864 84.6527 11.8424 88.7335C11.0269 88.3547 18.6975 95.2283 24.4809 104.913C30.2644 114.597 31.0307 120.815 33.1918 128.42Z" fill="#02C881"/>
<path d="M119.963 164.23C119.963 174.66 123.355 168.45 130.649 168.45C137.943 168.45 146.675 176.042 146.675 165.611C146.675 155.181 122.885 141.703 115.591 141.703C115.284 141.409 117.765 145.826 119.081 151.398C120.397 156.969 119.963 160.164 119.963 164.23Z" fill="#00B574"/>
<path d="M111.121 197.998C111.121 211.52 106.723 203.47 97.2656 203.47C87.808 203.47 76.4863 213.312 76.4863 199.79C76.4863 186.268 107.332 168.796 116.79 168.796C117.189 168.414 113.971 174.141 112.264 181.363C110.558 188.586 111.121 192.727 111.121 197.998Z" fill="#04DD8F"/>
<path d="M151.459 147.462C151.459 160.984 147.061 152.933 137.603 152.933C128.145 152.933 116.824 162.775 116.824 149.253C116.824 135.732 147.67 118.259 157.128 118.259C157.526 117.878 154.308 123.604 152.602 130.827C150.896 138.05 151.459 142.191 151.459 147.462Z" fill="#04DD8F"/>
<path d="M61.0887 96.8548C61.0887 110.377 56.6906 102.326 47.2329 102.326C37.7752 102.326 26.4536 112.168 26.4536 98.6461C26.4536 85.1243 57.2997 67.6519 66.7574 67.6519C67.1558 67.2702 63.9379 72.9968 62.2317 80.2197C60.5256 87.4425 61.0887 91.5836 61.0887 96.8548Z" fill="#04DD8F"/>
<path d="M39.193 200.901C39.193 214.683 51.9477 213.636 57.0254 227.682C66.657 227.682 69.085 216.231 69.085 202.449C69.085 188.667 43.0517 171.136 33.4201 171.136C33.0144 170.747 36.2914 176.584 38.029 183.946C39.7665 191.308 39.193 195.528 39.193 200.901Z" fill="#04DD8F"/>
<path d="M64.4318 114.909C64.4318 128.691 77.1865 127.644 82.2642 141.689C91.8957 141.689 94.3237 130.239 94.3237 116.457C94.3237 102.674 68.2905 85.1438 58.6589 85.1438C58.2532 84.7548 61.5302 90.5916 63.2677 97.9535C65.0053 105.315 64.4318 109.536 64.4318 114.909Z" fill="#04DD8F"/>
<path d="M44.1675 157.212C50.5874 171.613 36.7651 175.976 37.999 192.825C27.9295 196.945 20.0572 186.019 13.6373 171.618C7.21748 157.217 26.2685 127.761 36.338 123.641C36.5809 123.061 35.8738 130.562 37.4864 138.997C39.0991 147.433 41.6648 151.598 44.1675 157.212Z" fill="#20EFA5"/>
<path d="M124.097 145.892C117.945 162.388 102.218 155.592 89.502 170.196C77.2735 166.009 79.3024 151.248 85.4546 134.752C91.6067 118.256 132.485 108.589 144.713 112.775C145.402 112.486 138.636 118.048 133.144 126.104C127.651 134.16 126.495 139.461 124.097 145.892Z" fill="#00B574"/>
<path d="M52.5635 193.251C52.5635 203.1 58.4273 212.388 65.3141 212.388C72.2009 212.388 77.7837 204.405 77.7837 194.556C96.1931 179.715 55.3226 171.982 48.4358 171.982C48.1457 171.704 50.4889 175.875 51.7312 181.135C52.9736 186.396 52.5635 189.412 52.5635 193.251Z" fill="#00B574"/>
<path d="M81.0375 88.2947C72.128 104.394 87.7043 110.74 84.5563 130.16C95.8076 135.876 106.046 123.94 114.956 107.84C123.865 91.7408 104.787 55.8142 93.5353 50.0989C93.3129 49.4037 93.3678 58.1666 90.6385 67.7975C87.9091 77.4283 84.5106 82.0186 81.0375 88.2947Z" fill="#04DD8F"/>
<path d="M116.307 87.9156C109.941 99.4202 110.786 113.75 118.831 117.837C126.876 121.923 138.558 115.91 144.925 104.405C176.024 97.9921 133.28 64.7065 125.235 60.62C125.076 60.1231 125.117 66.3858 123.167 73.2683C121.218 80.1508 118.789 83.4308 116.307 87.9156Z" fill="#00B574"/>
<path d="M96.0797 219.789C96.0797 227.731 91.3488 235.222 85.7925 235.222C80.2363 235.222 75.732 228.784 75.732 220.841C60.8793 208.873 93.8537 202.637 99.41 202.637C99.644 202.413 97.7535 205.776 96.7512 210.019C95.7488 214.261 96.0797 216.693 96.0797 219.789Z" fill="#00B574"/>
<path d="M109.847 173.555C109.847 181.497 105.116 188.987 99.5596 188.987C94.0033 188.987 89.4991 182.549 89.4991 174.607C74.6464 162.638 107.621 156.402 113.177 156.402C113.411 156.178 111.521 159.542 110.518 163.784C109.516 168.026 109.847 170.459 109.847 173.555Z" fill="#20EFA5"/>
</g>
<rect width="193.571" height="31.3666" rx="15.6833" fill="#AAE0FF"/>
</svg>
