<svg width="424" height="299" viewBox="0 0 424 299" fill="none" xmlns="http://www.w3.org/2000/svg">
<rect width="387" height="185" transform="matrix(-1 0 0 1 406 114)" fill="#4B4242"/>
<path d="M405.437 72.3711C405.437 42.635 381.331 18.5291 351.594 18.5291H72.8051C43.0689 18.5291 18.963 42.635 18.963 72.3711H405.437Z" fill="#4B4242"/>
<rect width="423.603" height="41.0192" rx="20.5096" transform="matrix(-1 0 0 1 424 72.3712)" fill="#7D0AD7"/>
<path fill-rule="evenodd" clip-rule="evenodd" d="M149.287 205.825C157.707 180.217 182.689 161.648 212.198 161.648C241.707 161.648 266.689 180.217 275.109 205.825L212.198 224.832L149.287 205.825Z" fill="#7D0AD7"/>
<ellipse rx="36.6613" ry="35.1248" transform="matrix(-1 0 0 1 212.202 224.831)" fill="#EA61E5"/>
<rect width="13.0106" height="5.10946" rx="2.55473" transform="matrix(-0.957692 0.287794 0.311129 0.950368 267.668 196.478)" fill="#EA61E5"/>
<rect width="12.8382" height="5.1812" rx="2.5906" transform="matrix(-0.782447 0.622717 0.655074 0.755565 247.32 175.702)" fill="#EA61E5"/>
<rect width="12.8383" height="5.18126" rx="2.59063" transform="matrix(0.782449 0.622714 -0.655076 0.755563 172.164 178.063)" fill="#EA61E5"/>
<rect width="13.0106" height="5.10946" rx="2.55473" transform="matrix(0.957692 0.287794 -0.311129 0.950368 156.739 197.045)" fill="#EA61E5"/>
<rect x="207.63" y="178.056" width="12.547" height="5.32471" rx="2.66236" transform="rotate(-90 207.63 178.056)" fill="#EA61E5"/>
<path d="M248.925 19.0644C248.925 8.57693 240.423 0.0751953 229.936 0.0751953H195.241C184.754 0.0751953 176.252 8.57693 176.252 19.0644H248.925Z" fill="#4B4242"/>
<path d="M356.282 19.0644C356.282 8.57693 347.78 0.0751953 337.293 0.0751953H302.599C292.111 0.0751953 283.609 8.57693 283.609 19.0644H356.282Z" fill="#4B4242"/>
<path d="M141.567 19.0644C141.567 8.57693 133.066 0.0751953 122.578 0.0751953H87.8838C77.3963 0.0751953 68.8946 8.57693 68.8946 19.0644H141.567Z" fill="#4B4242"/>
</svg>
