<svg width="1114" height="797" viewBox="0 0 1114 797" fill="none" xmlns="http://www.w3.org/2000/svg">
<path d="M282 796C276.477 796 272 791.523 272 786V679C272 673.477 276.477 669 282 669H289C294.523 669 299 673.477 299 679V786C299 791.523 294.523 796 289 796H282Z" fill="#AAE0FF"/>
<path d="M722 770H282C276.477 770 272 774.477 272 780V787C272 792.523 276.477 797 282 797H722V770Z" fill="#AAE0FF"/>
<path d="M789 720H1069C1074.52 720 1079 724.477 1079 730V733C1079 738.523 1074.52 743 1069 743H789V720Z" fill="#AAE0FF"/>
<path d="M1114 720V359C1114 353.477 1109.52 349 1104 349H1097C1091.48 349 1087 353.477 1087 359V720H1114Z" fill="#AAE0FF"/>
<path d="M779.196 486.935V562.184C779.196 567.707 783.673 572.184 789.196 572.184H796.496C802.019 572.184 806.496 567.707 806.496 562.184V486.935H779.196Z" fill="#AAE0FF"/>
<path d="M523.383 556.028C523.383 550.505 527.86 546.028 533.383 546.028H796.496C802.019 546.028 806.496 550.505 806.496 556.028V562.184C806.496 567.707 802.019 572.184 796.496 572.184H533.383C527.86 572.184 523.383 567.707 523.383 562.184V556.028Z" fill="#AAE0FF"/>
<path d="M753.918 486.935V496.31C753.918 501.832 758.396 506.31 763.918 506.31H821.775C827.297 506.31 831.775 501.832 831.775 496.31V486.935H753.918Z" fill="#AAE0FF"/>
<path d="M550 354C550 348.477 545.523 344 540 344H456C450.477 344 446 348.477 446 354V360C446 365.523 450.477 370 456 370H540C545.523 370 550 365.523 550 360V354Z" fill="#AAE0FF"/>
<path d="M550.683 560.559V354.53C550.683 349.007 546.206 344.53 540.683 344.53H533.383C527.86 344.53 523.383 349.007 523.383 354.53V560.559H550.683Z" fill="#AAE0FF"/>
<path d="M271.607 423H319.607C325.13 423 329.607 427.477 329.607 433V439C329.607 444.523 325.13 449 319.607 449H271.607V423Z" fill="#AAE0FF"/>
<path d="M252 403.623H262.222C267.745 403.623 272.222 408.1 272.222 413.623V468.216C272.222 473.739 267.745 478.216 262.222 478.216H252V403.623Z" fill="#AAE0FF"/>
<path d="M302.607 368C302.607 362.477 307.085 358 312.607 358H384.607C390.13 358 394.607 362.477 394.607 368V374C394.607 379.523 390.13 384 384.607 384H312.607C307.085 384 302.607 379.523 302.607 374V368Z" fill="#AAE0FF"/>
<path d="M312.607 448C307.085 448 302.607 443.523 302.607 438V368C302.607 362.477 307.085 358 312.607 358H319.908C325.43 358 329.908 362.477 329.908 368V438C329.908 443.523 325.43 448 319.908 448H312.607Z" fill="#AAE0FF"/>
<path fill-rule="evenodd" clip-rule="evenodd" d="M630 0H400V2C400 24.0914 417.909 42 440 42H483V140H30C13.4315 140 0 153.431 0 170V171V185V250C0 266.569 13.4315 280 30 280H45C61.5685 280 75 266.569 75 250V215H513H528C544.569 215 558 201.569 558 185V170V42H590C612.091 42 630 24.0914 630 2V0Z" fill="#AAE0FF"/>
<path d="M100 736L100 670C100 664.477 104.477 660 110 660H117C122.523 660 127 664.477 127 670V736H100Z" fill="#AAE0FF"/>
<path d="M81 745.396V739C81 733.477 85.4772 729 91 729H136.888C142.411 729 146.888 733.477 146.888 739V745.396H81Z" fill="#AAE0FF"/>
<path d="M101 670C101 664.477 105.477 660 111 660H289C294.523 660 299 664.477 299 670V677C299 682.523 294.523 687 289 687H111C105.477 687 101 682.523 101 677V670Z" fill="#AAE0FF"/>
</svg>
