<svg width="1090" height="847" viewBox="0 0 1090 847" fill="none" xmlns="http://www.w3.org/2000/svg">
<path d="M564 506L564 323C564 317.477 568.477 313 574 313H581C586.523 313 591 317.477 591 323L591 506H564Z" fill="#AAE0FF"/>
<rect width="143" height="27" rx="13.5" transform="matrix(0 -1 -1 0 543 323)" fill="#AAE0FF"/>
<rect width="206" height="27" rx="13.5" transform="matrix(1 0 0 -1 337 206)" fill="#AAE0FF"/>
<path d="M1086 306.089C1086 300.566 1081.52 296.089 1076 296.089H528C522.477 296.089 518 300.566 518 306.089V313.089C518 318.612 522.477 323.089 528 323.089H1076C1081.52 323.089 1086 318.612 1086 313.089V306.089Z" fill="#AAE0FF"/>
<rect width="104.338" height="27" rx="13.5" transform="matrix(0 -1 -1 0 838.595 415.096)" fill="#AAE0FF"/>
<rect width="66.7763" height="27" rx="13.5" transform="matrix(0 -1 -1 0 1090 362.865)" fill="#AAE0FF"/>
<path d="M865.278 315.533C869.891 327.658 880.867 332.996 888.66 330.275C896.453 327.554 901.271 316.701 896.659 304.575C892.047 292.45 881.07 287.112 873.277 289.833C865.484 292.554 860.666 303.407 865.278 315.533Z" stroke="#AAE0FF" stroke-width="10"/>
<path d="M902.504 315.54C907.116 327.666 918.093 333.004 925.886 330.282C933.679 327.561 938.497 316.709 933.885 304.583C929.272 292.458 918.296 287.12 910.503 289.841C902.709 292.562 897.891 303.415 902.504 315.54Z" stroke="#AAE0FF" stroke-width="10"/>
<path d="M937.002 315.499C941.614 327.625 952.591 332.963 960.384 330.241C968.177 327.52 972.995 316.668 968.383 304.542C963.77 292.417 952.794 287.079 945.001 289.8C937.207 292.521 932.389 303.374 937.002 315.499Z" stroke="#AAE0FF" stroke-width="10"/>
<path d="M974.227 315.507C978.84 327.633 989.816 332.97 997.609 330.249C1005.4 327.528 1010.22 316.676 1005.61 304.55C1001 292.424 990.019 287.087 982.226 289.808C974.433 292.529 969.615 303.381 974.227 315.507Z" stroke="#AAE0FF" stroke-width="10"/>
<path d="M1010.88 315.54C1015.5 327.666 1026.47 333.004 1034.27 330.282C1042.06 327.561 1046.88 316.709 1042.27 304.583C1037.65 292.458 1026.68 287.12 1018.88 289.841C1011.09 292.562 1006.27 303.415 1010.88 315.54Z" stroke="#AAE0FF" stroke-width="10"/>
<path d="M708 22L428 22V49L708 49V22Z" fill="#AAE0FF"/>
<path d="M65.8877 158V164.396C65.8877 169.919 61.4105 174.396 55.8877 174.396H10C4.47717 174.396 1.52588e-05 169.919 1.52588e-05 164.396V158H65.8877Z" fill="#AAE0FF"/>
<path d="M20 166L20 287C20 292.523 24.4772 297 30 297H37C42.5228 297 47 292.523 47 287L47 166L20 166Z" fill="#AAE0FF"/>
<path d="M25 287C25 292.523 29.4772 297 35 297H146C151.523 297 156 292.523 156 287V280C156 274.477 151.523 270 146 270H35C29.4772 270 25 274.477 25 280V287Z" fill="#AAE0FF"/>
<path d="M129 17C129 22.5228 133.477 27 139 27H250C255.523 27 260 22.5228 260 17V10C260 4.47715 255.523 0 250 0H139C133.477 0 129 4.47715 129 10V17Z" fill="#AAE0FF"/>
<path d="M146 297C151.523 297 156 292.523 156 287L156 9.99999C156 4.47715 151.523 0 146 0H139C133.477 0 129 4.47715 129 10L129 287C129 292.523 133.477 297 139 297H146Z" fill="#AAE0FF"/>
<path fill-rule="evenodd" clip-rule="evenodd" d="M226.5 397H226H35.5C29.1487 397 24 402.149 24 408.5C24 409.02 24.0345 409.532 24.1015 410.034C24.0346 410.513 24 411.003 24 411.5V471.5C24 477.299 28.701 482 34.5 482C40.299 482 45 477.299 45 471.5V420H214V833C214 833.615 214.046 834.219 214.135 834.809C214.046 835.359 214 835.924 214 836.5C214 842.299 218.701 847 224.5 847H368H368.5C370.947 847 373.198 846.163 374.984 844.76C378.021 842.582 380 839.022 380 835V759C380 752.373 374.627 747 368 747C361.373 747 356 752.373 356 759V826H238V409C238 408.916 237.999 408.831 237.997 408.747C237.999 408.665 238 408.583 238 408.5C238 402.149 232.851 397 226.5 397Z" fill="#EA61E5"/>
<path d="M49 479V479C49 483.971 44.9706 488 40 488H30C25.0294 488 21 483.971 21 479V479H49Z" fill="#4B4242"/>
<rect width="28" height="7" transform="matrix(-1 0 0 1 49 472)" fill="#7D0AD7"/>
</svg>
