<svg width="905" height="407" viewBox="0 0 905 407" fill="none" xmlns="http://www.w3.org/2000/svg">
<path fill-rule="evenodd" clip-rule="evenodd" d="M95.9463 281C86.5871 281 79 288.587 79 297.946V372.738C79 382.097 86.5871 389.684 95.9463 389.684C96.5728 389.684 97.1913 389.65 97.8002 389.584C98.9896 389.856 100.228 390 101.5 390H171.5C172.2 390 172.889 389.956 173.566 389.872V396.044C173.566 401.567 178.043 406.044 183.566 406.044H190.68V342.918H183.566C178.043 342.918 173.566 347.395 173.566 352.918V357.128C172.889 357.044 172.2 357 171.5 357H112.893V297.946C112.893 295.755 112.477 293.662 111.72 291.739C112.507 289.469 113.35 287.659 113.79 286.715C114.033 286.194 114.153 285.937 114.071 286.013C112.959 286.013 110.986 286.206 108.523 286.588C105.422 283.156 100.936 281 95.9463 281Z" fill="#AAE0FF"/>
<path d="M162 32V66C162 71.5228 157.523 76 152 76H145C139.477 76 135 71.5228 135 66V32L162 32Z" fill="#AAE0FF"/>
<path d="M162 30C162 24.4772 157.523 20 152 20H10C4.47716 20 0 24.4772 0 30V32C0 37.5228 4.47715 42 10 42H152C157.523 42 162 37.5228 162 32V30Z" fill="#AAE0FF"/>
<path d="M23 0L23 29C23 34.5228 18.5228 39 13 39H10C4.47715 39 0 34.5228 0 29L0 0L23 0Z" fill="#AAE0FF"/>
<path d="M667 343H442V370H667V343Z" fill="#AAE0FF"/>
<path d="M690 363V400H667V363H690Z" fill="#AAE0FF"/>
<path d="M796 355V400H774V355H796Z" fill="#AAE0FF"/>
<path d="M905 353C905 347.477 900.523 343 895 343H667V370H905V353Z" fill="#AAE0FF"/>
<path d="M895 349C900.523 349 905 353.477 905 359V400H882V359C882 353.477 886.477 349 892 349H895Z" fill="#AAE0FF"/>
</svg>
