<svg width="630" height="309" viewBox="0 0 630 309" fill="none" xmlns="http://www.w3.org/2000/svg">
<path fill-rule="evenodd" clip-rule="evenodd" d="M39.1362 60C37.0344 60 35.3305 61.7039 35.3305 63.8057C35.3305 65.9075 37.0344 67.6114 39.1362 67.6114H39.9069V108.863C28.3439 112.936 18.2497 120.221 12.0389 131.013C6.79726 140.121 3 150.124 3 160.62C3 202.906 30.0813 307.966 63.4878 307.966C96.8943 307.966 123.976 202.906 123.976 160.62C123.976 150.187 120.362 140.241 115.315 131.177C109.16 120.126 98.8961 112.74 87.1206 108.687V67.6114H87.8394C89.9412 67.6114 91.6451 65.9075 91.6451 63.8057C91.6451 61.7039 89.9412 60 87.8394 60H39.1362Z" fill="#AAE0FF"/>
<path fill-rule="evenodd" clip-rule="evenodd" d="M165.136 60C163.034 60 161.331 61.7039 161.331 63.8057C161.331 65.9075 163.034 67.6114 165.136 67.6114H165.907V108.863C154.344 112.936 144.25 120.221 138.039 131.013C132.797 140.121 129 150.124 129 160.62C129 202.906 156.081 307.966 189.488 307.966C222.894 307.966 249.976 202.906 249.976 160.62C249.976 150.187 246.362 140.241 241.315 131.177C235.16 120.126 224.896 112.74 213.121 108.687V67.6114H213.839C215.941 67.6114 217.645 65.9075 217.645 63.8057C217.645 61.7039 215.941 60 213.839 60H165.136Z" fill="#AAE0FF"/>
<path fill-rule="evenodd" clip-rule="evenodd" d="M291.136 60C289.034 60 287.331 61.7039 287.331 63.8057C287.331 65.9075 289.034 67.6114 291.136 67.6114H291.907V108.863C280.344 112.936 270.25 120.221 264.039 131.013C258.797 140.121 255 150.124 255 160.62C255 202.906 282.081 307.966 315.488 307.966C348.894 307.966 375.976 202.906 375.976 160.62C375.976 150.187 372.362 140.241 367.315 131.177C361.16 120.126 350.896 112.74 339.121 108.687V67.6114H339.839C341.941 67.6114 343.645 65.9075 343.645 63.8057C343.645 61.7039 341.941 60 339.839 60H291.136Z" fill="#AAE0FF"/>
<path fill-rule="evenodd" clip-rule="evenodd" d="M417.136 60C415.034 60 413.331 61.7039 413.331 63.8057C413.331 65.9075 415.034 67.6114 417.136 67.6114H417.907V108.863C406.344 112.936 396.25 120.221 390.039 131.013C384.797 140.121 381 150.124 381 160.62C381 202.906 408.081 307.966 441.488 307.966C474.894 307.966 501.976 202.906 501.976 160.62C501.976 150.187 498.362 140.241 493.315 131.177C487.16 120.126 476.896 112.74 465.121 108.687V67.6114H465.839C467.941 67.6114 469.645 65.9075 469.645 63.8057C469.645 61.7039 467.941 60 465.839 60H417.136Z" fill="#AAE0FF"/>
<path fill-rule="evenodd" clip-rule="evenodd" d="M543.136 60C541.034 60 539.331 61.7039 539.331 63.8057C539.331 65.9075 541.034 67.6114 543.136 67.6114H543.907V108.863C532.344 112.936 522.25 120.221 516.039 131.013C510.797 140.121 507 150.124 507 160.62C507 202.906 534.081 307.966 567.488 307.966C600.894 307.966 627.976 202.906 627.976 160.62C627.976 150.187 624.362 140.241 619.315 131.177C613.16 120.126 602.896 112.74 591.121 108.687V67.6114H591.839C593.941 67.6114 595.645 65.9075 595.645 63.8057C595.645 61.7039 593.941 60 591.839 60H543.136Z" fill="#AAE0FF"/>
<path fill-rule="evenodd" clip-rule="evenodd" d="M49.9034 35.3222C34.3715 40.1204 32.5177 49.1577 33.9428 63.1654C34.7057 70.6648 39.4233 75.6929 43.8587 80.4202C47.7079 84.5228 51.3445 88.3988 51.9996 93.467C52.593 98.0585 50.7879 99.0695 48.8789 100.139C46.2526 101.609 43.4297 103.19 46.3846 114.356C49.6786 126.802 62.0777 155.196 70.1716 167.039C65.7181 167.726 61.3956 168.639 57.1796 169.53C41.1518 172.916 26.6632 175.977 12.3698 165.035C8.30442 161.923 4.85238 159.786 2.63659 160.155C2.61787 160.678 2.60836 161.202 2.60836 161.727C2.60836 203.991 29.6897 309 63.0962 309C96.5027 309 123.584 203.991 123.584 161.727C123.584 159.913 123.475 158.113 123.267 156.331C120.91 154.98 117.036 156.643 111.68 158.941C104.789 161.898 95.4457 165.907 83.7235 165.907C81.581 165.907 79.4704 166.003 77.3891 166.173C77.2026 161.846 75.7256 156.077 74.1459 149.906C71.7772 140.654 69.1777 130.5 70.3524 122.957C71.6989 114.31 75.972 107.749 79.5855 102.201C82.8709 97.1569 85.611 92.9498 85.1101 88.7736C84.1834 81.0469 82.0755 81.5932 78.9487 82.4035C75.8218 83.2137 71.676 84.288 66.6733 77.6176C56.668 64.2767 61.238 65.4225 61.238 65.4225C61.238 65.4225 90.4571 73.2916 98 42.573C105.543 11.8543 50.5926 -6.88764 43.3476 2.37666C40.0133 6.64025 44.4262 12.9411 48.6478 18.9688C53.5991 26.0385 58.2872 32.7323 49.9034 35.3222Z" fill="url(#paint0_linear_249_32)"/>
<path fill-rule="evenodd" clip-rule="evenodd" d="M175.903 35.3222C160.371 40.1204 158.518 49.1577 159.943 63.1654C160.706 70.6648 165.423 75.6929 169.859 80.4202C173.708 84.5228 177.344 88.3988 177.999 93.467C178.593 98.0585 176.788 99.0695 174.879 100.139C172.252 101.609 169.43 103.19 172.384 114.356C175.479 126.05 186.611 151.82 194.659 164.716C188.684 163.854 182.735 162.63 176.808 161.411C160.772 158.111 144.898 154.845 129.112 158.866C128.968 158.902 128.828 158.948 128.693 159.001C128.637 159.906 128.608 160.814 128.608 161.727C128.608 203.991 155.69 309 189.096 309C222.503 309 249.584 203.991 249.584 161.727C249.584 159.913 249.475 158.113 249.267 156.331C246.91 154.98 243.036 156.643 237.68 158.941C230.789 161.898 221.446 165.907 209.723 165.907C207.6 165.907 205.479 165.824 203.362 165.673C203.09 161.407 201.665 155.842 200.146 149.906C197.777 140.654 195.178 130.5 196.352 122.957C197.699 114.31 201.972 107.749 205.585 102.201C208.871 97.1569 211.611 92.9498 211.11 88.7736C210.183 81.0469 208.075 81.5932 204.949 82.4035C201.822 83.2137 197.676 84.288 192.673 77.6176C182.668 64.2767 187.238 65.4225 187.238 65.4225C187.238 65.4225 216.457 73.2916 224 42.573C231.543 11.8543 176.592 -6.88764 169.347 2.37666C166.013 6.64025 170.426 12.9411 174.648 18.9688C179.599 26.0385 184.287 32.7323 175.903 35.3222Z" fill="url(#paint1_linear_249_32)"/>
<path fill-rule="evenodd" clip-rule="evenodd" d="M301.903 35.3222C286.372 40.1204 284.518 49.1577 285.943 63.1654C286.706 70.6648 291.423 75.6929 295.859 80.4202C299.708 84.5228 303.345 88.3988 304 93.467C304.593 98.0585 302.788 99.0695 300.879 100.139C298.253 101.609 295.43 103.19 298.385 114.356C300.65 122.917 307.224 139.023 313.741 152.099C305.937 152.71 297.443 152.076 289.324 151.471C274.4 150.358 260.74 149.339 254.939 156.313C254.723 158.101 254.608 159.906 254.608 161.727C254.608 203.991 281.69 309 315.096 309C348.503 309 375.584 203.991 375.584 161.727C375.584 156.814 374.782 152.01 373.407 147.355C366.191 133.693 351.473 126.539 336.5 142.93C333.642 146.058 330.093 148.21 326.082 149.657C323.731 140.472 321.188 130.433 322.352 122.957C323.699 114.31 327.972 107.749 331.585 102.201C334.871 97.1569 337.611 92.9498 337.11 88.7736C336.183 81.0469 334.076 81.5932 330.949 82.4035C327.822 83.2137 323.676 84.288 318.673 77.6176C308.668 64.2767 313.238 65.4225 313.238 65.4225C313.238 65.4225 342.457 73.2916 350 42.573C357.543 11.8543 302.593 -6.88764 295.348 2.37666C292.013 6.64025 296.426 12.9411 300.648 18.9688C305.599 26.0385 310.287 32.7323 301.903 35.3222Z" fill="url(#paint2_linear_249_32)"/>
<path fill-rule="evenodd" clip-rule="evenodd" d="M553.903 35.3223C538.371 40.1204 536.517 49.1577 537.942 63.1654C538.705 70.6648 543.423 75.6929 547.858 80.4202C551.708 84.5228 555.344 88.3988 555.999 93.467C556.593 98.0585 554.788 99.0695 552.879 100.139C550.252 101.609 547.429 103.19 550.384 114.356C552.65 122.917 559.224 139.023 565.741 152.099C557.936 152.71 549.443 152.076 541.324 151.471C526.4 150.358 512.74 149.339 506.939 156.313C506.723 158.101 506.608 159.907 506.608 161.727C506.608 203.991 533.69 309 567.096 309C600.503 309 627.584 203.991 627.584 161.727C627.584 156.814 626.782 152.009 625.406 147.354C618.19 133.693 603.472 126.54 588.5 142.93C585.642 146.059 582.093 148.21 578.082 149.657C575.73 140.472 573.188 130.433 574.352 122.957C575.699 114.31 579.972 107.749 583.585 102.201C586.871 97.1569 589.611 92.9498 589.11 88.7736C588.183 81.0469 586.075 81.5932 582.948 82.4035C579.821 83.2137 575.676 84.288 570.673 77.6176C560.668 64.2767 565.238 65.4225 565.238 65.4225C565.238 65.4225 594.457 73.2916 602 42.573C609.543 11.8543 554.592 -6.88764 547.347 2.37666C544.013 6.64025 548.426 12.9411 552.647 18.9688C557.599 26.0385 562.287 32.7323 553.903 35.3223Z" fill="url(#paint3_linear_249_32)"/>
<path fill-rule="evenodd" clip-rule="evenodd" d="M427.903 35.3222C412.371 40.1204 410.518 49.1577 411.943 63.1654C412.706 70.6648 417.423 75.6929 421.859 80.4202C425.708 84.5228 429.344 88.3988 429.999 93.467C430.593 98.0585 428.788 99.0695 426.879 100.139C424.252 101.609 421.43 103.19 424.384 114.356C426.13 120.95 430.431 132.022 435.294 142.736C416.636 133.781 399.658 126.665 389.176 132.962C384.18 141.842 380.608 151.553 380.608 161.727C380.608 203.991 407.69 309 441.096 309C474.503 309 501.584 203.991 501.584 161.727C501.584 159.92 501.476 158.128 501.27 156.352C499.001 154.703 495.386 155.547 490.685 156.644C483.725 158.27 474.384 160.451 463.5 155.923C459.822 154.393 456.118 152.721 452.422 150.988C452.331 150.629 452.238 150.268 452.146 149.906C449.777 140.654 447.178 130.5 448.352 122.957C449.699 114.31 453.972 107.749 457.585 102.201C460.871 97.1569 463.611 92.9498 463.11 88.7736C462.183 81.0469 460.075 81.5932 456.949 82.4035C453.822 83.2137 449.676 84.288 444.673 77.6176C434.668 64.2767 439.238 65.4225 439.238 65.4225C439.238 65.4225 468.457 73.2916 476 42.573C483.543 11.8543 428.592 -6.88764 421.347 2.37666C418.013 6.64025 422.426 12.9411 426.648 18.9688C431.599 26.0385 436.287 32.7323 427.903 35.3222Z" fill="url(#paint4_linear_249_32)"/>
<defs>
<linearGradient id="paint0_linear_249_32" x1="80.9393" y1="-0.657993" x2="80.9393" y2="292.065" gradientUnits="userSpaceOnUse">
<stop offset="0.0218751" stop-color="#7D0AD7" stop-opacity="0.42"/>
<stop offset="0.271875" stop-color="#7D0AD7"/>
<stop offset="0.823958" stop-color="#EA61E7"/>
</linearGradient>
<linearGradient id="paint1_linear_249_32" x1="206.939" y1="-0.657993" x2="206.939" y2="292.065" gradientUnits="userSpaceOnUse">
<stop offset="0.0218751" stop-color="#7D0AD7" stop-opacity="0.42"/>
<stop offset="0.271875" stop-color="#7D0AD7"/>
<stop offset="0.823958" stop-color="#EA61E7"/>
</linearGradient>
<linearGradient id="paint2_linear_249_32" x1="332.939" y1="-0.657993" x2="332.939" y2="292.065" gradientUnits="userSpaceOnUse">
<stop offset="0.0218751" stop-color="#7D0AD7" stop-opacity="0.42"/>
<stop offset="0.271875" stop-color="#7D0AD7"/>
<stop offset="0.823958" stop-color="#EA61E7"/>
</linearGradient>
<linearGradient id="paint3_linear_249_32" x1="584.939" y1="-0.657993" x2="584.939" y2="292.065" gradientUnits="userSpaceOnUse">
<stop offset="0.0218751" stop-color="#7D0AD7" stop-opacity="0.42"/>
<stop offset="0.271875" stop-color="#7D0AD7"/>
<stop offset="0.823958" stop-color="#EA61E7"/>
</linearGradient>
<linearGradient id="paint4_linear_249_32" x1="458.939" y1="-0.657993" x2="458.939" y2="292.065" gradientUnits="userSpaceOnUse">
<stop offset="0.0218751" stop-color="#7D0AD7" stop-opacity="0.42"/>
<stop offset="0.271875" stop-color="#7D0AD7"/>
<stop offset="0.823958" stop-color="#EA61E7"/>
</linearGradient>
</defs>
</svg>
