<svg width="950" height="491" viewBox="0 0 950 491" fill="none" xmlns="http://www.w3.org/2000/svg">
<path fill-rule="evenodd" clip-rule="evenodd" d="M133.246 100.781C136.546 100.781 139.221 103.456 139.221 106.756C139.221 110.056 136.546 112.731 133.246 112.731H56.7501C53.4502 112.731 50.7751 110.056 50.7751 106.756C50.7751 103.456 53.4502 100.781 56.7501 100.781H133.246ZM132.038 112.731H57.886V178.115C39.3888 184.479 23.2651 196.078 13.5969 213.436C5.67236 227.663 0 243.274 0 259.65C0 326.038 42.533 490.982 95 490.982C147.467 490.982 190 326.038 190 259.65C190 243.175 184.039 227.475 175.81 213.178C166.054 196.229 150.199 184.79 132.038 178.394V112.731Z" fill="#AAE0FF"/>
<path fill-rule="evenodd" clip-rule="evenodd" d="M86.0299 13.9949C91.66 13.9949 96.2374 18.5244 96.3409 24.1536C96.8232 50.3818 99.298 119.935 111.997 143.125C118.296 154.627 154.5 225.917 138 253.407C122.323 279.526 121.541 359.792 144.662 391.311C151.987 391.871 159.117 391.189 166.116 388.38C148.712 443.009 123.301 491 95.0002 491C62.191 491 33.2665 426.501 16.1978 361.936C18.3844 362.78 20.79 363.824 23.4129 364.963C34.6785 369.853 49.954 376.484 69.1189 376.484C70.586 376.484 72.0208 376.509 73.424 376.559C77.4062 367.168 75.9011 356.427 71.4444 345.761C57.0855 311.397 54.8599 292.866 68.0003 271.4C80.2127 251.451 78.2456 186.316 76.3506 123.57C75.2046 85.6226 74.085 48.5491 76.144 22.8721C76.5545 17.754 80.8954 13.9949 86.0299 13.9949Z" fill="url(#paint0_linear_287_263)"/>
<path d="M100 6.99731V6.99731C100 11.9661 95.972 15.994 91.0033 15.994L80.9967 15.994C76.028 15.994 72 11.9661 72 6.99731V6.99731L100 6.99731Z" fill="#4B4242"/>
<rect width="28" height="6.99743" transform="matrix(-1 0 0 1 100 0)" fill="#7D0AD7"/>
<path fill-rule="evenodd" clip-rule="evenodd" d="M323.246 100.781C326.546 100.781 329.221 103.456 329.221 106.756C329.221 110.056 326.546 112.731 323.246 112.731H246.75C243.45 112.731 240.775 110.056 240.775 106.756C240.775 103.456 243.45 100.781 246.75 100.781H323.246ZM322.038 112.731H247.886V178.115C229.389 184.479 213.265 196.078 203.597 213.436C195.672 227.663 190 243.274 190 259.65C190 326.038 232.533 490.982 285 490.982C337.467 490.982 380 326.038 380 259.65C380 243.175 374.039 227.475 365.81 213.178C356.054 196.229 340.199 184.79 322.038 178.394V112.731Z" fill="#AAE0FF"/>
<path fill-rule="evenodd" clip-rule="evenodd" d="M276.029 13.9949C281.659 13.9949 286.237 18.5244 286.34 24.1536C286.823 50.3818 289.297 119.935 301.996 143.125C308.295 154.627 344.5 225.917 328 253.407C319.355 267.81 315.239 298.676 317.163 328.754C337.478 323.244 357.768 320.339 372.676 323.088C358.334 397.608 324.48 491 285 491C249.142 491 217.925 413.958 201.753 343.988C203.501 345.762 205.387 347.829 207.373 350.005L207.373 350.005C218.651 362.363 233.127 378.224 243.5 363.867C247.042 358.965 252.249 354.953 258.4 351.67C259.824 350.91 261.304 350.144 262.837 349.374C262.412 348.17 261.947 346.965 261.444 345.761C247.085 311.397 244.859 292.866 258 271.4C270.212 251.451 268.245 186.316 266.35 123.57C265.204 85.6226 264.084 48.5491 266.143 22.8721C266.554 17.754 270.895 13.9949 276.029 13.9949Z" fill="url(#paint1_linear_287_263)"/>
<path d="M290 6.99731V6.99731C290 11.9661 285.972 15.994 281.003 15.994L270.997 15.994C266.028 15.994 262 11.9661 262 6.99731V6.99731L290 6.99731Z" fill="#4B4242"/>
<rect width="28" height="6.99743" transform="matrix(-1 0 0 1 290 0)" fill="#7D0AD7"/>
<path fill-rule="evenodd" clip-rule="evenodd" d="M513.246 100.781C516.546 100.781 519.221 103.456 519.221 106.756C519.221 110.056 516.546 112.731 513.246 112.731H436.75C433.45 112.731 430.775 110.056 430.775 106.756C430.775 103.456 433.45 100.781 436.75 100.781H513.246ZM512.038 112.731H437.886V178.115C419.389 184.479 403.265 196.078 393.597 213.436C385.672 227.663 380 243.274 380 259.65C380 326.038 422.533 490.982 475 490.982C527.467 490.982 570 326.038 570 259.65C570 243.175 564.039 227.475 555.81 213.178C546.054 196.229 530.199 184.79 512.038 178.394V112.731Z" fill="#AAE0FF"/>
<path fill-rule="evenodd" clip-rule="evenodd" d="M466.029 13.9949C471.659 13.9949 476.237 18.5244 476.34 24.1536C476.823 50.3818 479.297 119.935 491.996 143.125C498.295 154.627 534.5 225.917 518 253.407C509.157 268.139 505.053 300.098 507.305 330.819C524.04 337.557 541.121 341.083 559.608 337.955C543.872 409.451 511.892 491 475 491C435.071 491 400.895 395.47 386.842 320.551C388.233 319.273 389.835 318.15 391.646 316.881L391.647 316.881C396.254 313.652 402.214 309.475 409.5 299.39C415.263 291.414 426.483 291.862 439.433 296.453C440.052 287.797 442.842 279.825 448 271.4C460.212 251.451 458.245 186.316 456.35 123.57C455.204 85.6226 454.084 48.5491 456.143 22.8721C456.554 17.754 460.895 13.9949 466.029 13.9949Z" fill="url(#paint2_linear_287_263)"/>
<path d="M480 6.99731V6.99731C480 11.9661 475.972 15.994 471.003 15.994L460.997 15.994C456.028 15.994 452 11.9661 452 6.99731V6.99731L480 6.99731Z" fill="#4B4242"/>
<rect width="28" height="6.99743" transform="matrix(-1 0 0 1 480 0)" fill="#7D0AD7"/>
<path fill-rule="evenodd" clip-rule="evenodd" d="M893.246 100.781C896.546 100.781 899.221 103.456 899.221 106.756C899.221 110.056 896.546 112.731 893.246 112.731H816.75C813.45 112.731 810.775 110.056 810.775 106.756C810.775 103.456 813.45 100.781 816.75 100.781H893.246ZM892.038 112.731H817.886V178.115C799.389 184.479 783.265 196.078 773.597 213.436C765.672 227.663 760 243.274 760 259.65C760 326.038 802.533 490.982 855 490.982C907.467 490.982 950 326.038 950 259.65C950 243.175 944.039 227.475 935.81 213.178C926.054 196.229 910.199 184.79 892.038 178.394V112.731Z" fill="#AAE0FF"/>
<path fill-rule="evenodd" clip-rule="evenodd" d="M846.029 13.9949C851.659 13.9949 856.237 18.5244 856.34 24.1536C856.823 50.3818 859.297 119.935 871.996 143.125C878.295 154.627 914.5 225.917 898 253.407C889.157 268.139 885.053 300.098 887.305 330.819C904.04 337.557 921.121 341.083 939.608 337.955C923.872 409.451 891.892 491 855 491C815.071 491 780.895 395.47 766.842 320.551C768.233 319.273 769.835 318.15 771.646 316.881L771.647 316.881C776.254 313.652 782.214 309.475 789.5 299.39C795.263 291.414 806.483 291.862 819.433 296.453C820.052 287.797 822.842 279.825 828 271.4C840.212 251.451 838.245 186.316 836.35 123.57C835.204 85.6226 834.084 48.5491 836.143 22.8721C836.554 17.754 840.895 13.9949 846.029 13.9949Z" fill="url(#paint3_linear_287_263)"/>
<path d="M860 6.99731V6.99731C860 11.9661 855.972 15.994 851.003 15.994L840.997 15.994C836.028 15.994 832 11.9661 832 6.99731V6.99731L860 6.99731Z" fill="#4B4242"/>
<rect width="28" height="6.99743" transform="matrix(-1 0 0 1 860 0)" fill="#7D0AD7"/>
<path fill-rule="evenodd" clip-rule="evenodd" d="M703.246 100.781C706.546 100.781 709.221 103.456 709.221 106.756C709.221 110.056 706.546 112.731 703.246 112.731H626.75C623.45 112.731 620.775 110.056 620.775 106.756C620.775 103.456 623.45 100.781 626.75 100.781H703.246ZM702.038 112.731H627.886V178.115C609.389 184.479 593.265 196.078 583.597 213.436C575.672 227.663 570 243.274 570 259.65C570 326.038 612.533 490.982 665 490.982C717.467 490.982 760 326.038 760 259.65C760 243.175 754.039 227.475 745.81 213.178C736.054 196.229 720.199 184.79 702.038 178.394V112.731Z" fill="#AAE0FF"/>
<path fill-rule="evenodd" clip-rule="evenodd" d="M656.029 13.9949C661.659 13.9949 666.237 18.5244 666.34 24.1536C666.823 50.3818 669.297 119.935 681.997 143.125C688.295 154.627 724.5 225.917 708 253.407C706.182 256.435 704.565 260.191 703.162 264.515C724.479 266.547 744.725 273.496 758.436 285.399C750.319 361.033 711.573 491 665 491C621.809 491 585.35 379.225 573.808 302.667C577.915 295.623 585.137 294.274 594.47 292.53C603.481 290.846 614.46 288.795 626.5 280.897C629.24 279.1 632.258 277.412 635.487 275.829C636.251 274.363 637.089 272.889 638 271.4C650.212 251.451 648.245 186.316 646.35 123.57C645.204 85.6226 644.084 48.5491 646.143 22.8721C646.554 17.754 650.895 13.9949 656.029 13.9949Z" fill="url(#paint4_linear_287_263)"/>
<path d="M670 6.99731V6.99731C670 11.9661 665.972 15.994 661.003 15.994L650.997 15.994C646.028 15.994 642 11.9661 642 6.99731V6.99731L670 6.99731Z" fill="#4B4242"/>
<rect width="28" height="6.99743" transform="matrix(-1 0 0 1 670 0)" fill="#7D0AD7"/>
<defs>
<linearGradient id="paint0_linear_287_263" x1="34.9497" y1="13.9949" x2="34.9497" y2="417.081" gradientUnits="userSpaceOnUse">
<stop offset="0.355208" stop-color="#EA61E5"/>
<stop offset="0.626042" stop-color="#7D0AD7"/>
<stop offset="0.813542" stop-color="#008BDA"/>
<stop offset="1" stop-color="#8CD0F6"/>
</linearGradient>
<linearGradient id="paint1_linear_287_263" x1="224.949" y1="13.9949" x2="224.949" y2="417.081" gradientUnits="userSpaceOnUse">
<stop offset="0.355208" stop-color="#EA61E5"/>
<stop offset="0.626042" stop-color="#7D0AD7"/>
<stop offset="0.813542" stop-color="#008BDA"/>
<stop offset="1" stop-color="#8CD0F6"/>
</linearGradient>
<linearGradient id="paint2_linear_287_263" x1="414.949" y1="13.9949" x2="414.949" y2="417.081" gradientUnits="userSpaceOnUse">
<stop offset="0.355208" stop-color="#EA61E5"/>
<stop offset="0.626042" stop-color="#7D0AD7"/>
<stop offset="0.813542" stop-color="#008BDA"/>
<stop offset="1" stop-color="#8CD0F6"/>
</linearGradient>
<linearGradient id="paint3_linear_287_263" x1="794.949" y1="13.9949" x2="794.949" y2="417.081" gradientUnits="userSpaceOnUse">
<stop offset="0.355208" stop-color="#EA61E5"/>
<stop offset="0.626042" stop-color="#7D0AD7"/>
<stop offset="0.813542" stop-color="#008BDA"/>
<stop offset="1" stop-color="#8CD0F6"/>
</linearGradient>
<linearGradient id="paint4_linear_287_263" x1="606.715" y1="13.9949" x2="606.715" y2="417.081" gradientUnits="userSpaceOnUse">
<stop offset="0.355208" stop-color="#EA61E5"/>
<stop offset="0.626042" stop-color="#7D0AD7"/>
<stop offset="0.813542" stop-color="#008BDA"/>
<stop offset="1" stop-color="#8CD0F6"/>
</linearGradient>
</defs>
</svg>
