<svg width="431" height="177" viewBox="0 0 431 177" fill="none" xmlns="http://www.w3.org/2000/svg">
<path fill-rule="evenodd" clip-rule="evenodd" d="M70.2357 27.9781C73.7904 27.9781 76.6721 30.8598 76.6721 34.4146C76.6721 37.9693 73.7904 40.851 70.2357 40.851H66.4662V61.361L84.5294 121.775C92.7621 149.31 72.1397 177 43.4005 177C15.1553 177 -5.39233 150.192 1.94716 122.917L18.5144 61.3501H18.52V40.851H16.3291C12.7743 40.851 9.89266 37.9693 9.89266 34.4146C9.89266 30.8598 12.7743 27.9781 16.3291 27.9781H70.2357Z" fill="#AAE0FF"/>
<rect width="44.2907" height="28.0221" transform="matrix(-1 0 0 1 64.9023 0)" fill="#7D0AD7"/>
<path fill-rule="evenodd" clip-rule="evenodd" d="M0.820053 129.303C3.54832 132.346 9.51094 133.311 22.0357 127.333C39.553 118.972 49.4747 124.622 56.0583 128.372C60.4196 130.856 63.3161 132.505 65.9855 128.694C73.2968 118.256 79.4686 116.501 83.0968 116.67L84.6232 121.775C92.8558 149.31 72.2335 177 43.4943 177C17.4607 177 -2.03348 154.226 0.820053 129.303Z" fill="url(#paint0_radial_284_188)"/>
<path fill-rule="evenodd" clip-rule="evenodd" d="M156.236 27.9781C159.79 27.9781 162.672 30.8598 162.672 34.4146C162.672 37.9693 159.79 40.851 156.236 40.851H152.466V61.361L170.529 121.775C178.762 149.31 158.14 177 129.401 177C101.155 177 80.6077 150.192 87.9472 122.917L104.514 61.3501H104.52V40.851H102.329C98.7743 40.851 95.8927 37.9693 95.8927 34.4146C95.8927 30.8598 98.7743 27.9781 102.329 27.9781H156.236Z" fill="#AAE0FF"/>
<rect width="44.2907" height="28.0221" transform="matrix(-1 0 0 1 150.902 0)" fill="#7D0AD7"/>
<path fill-rule="evenodd" clip-rule="evenodd" d="M87.9867 123.12C90.9097 122.289 95.2316 120.585 101.5 117.593C118.19 109.626 129.972 111.931 138.25 113.55C144.417 114.757 148.64 115.583 151.5 111.5C157.477 102.967 162.817 104.668 166.627 108.411L170.623 121.775C178.856 149.31 158.233 177 129.494 177C101.319 177 80.8036 150.325 87.9867 123.12Z" fill="url(#paint1_radial_284_188)"/>
<path fill-rule="evenodd" clip-rule="evenodd" d="M242.236 27.9781C245.79 27.9781 248.672 30.8598 248.672 34.4146C248.672 37.9693 245.79 40.851 242.236 40.851H238.466V61.361L256.529 121.775C264.762 149.31 244.14 177 215.401 177C187.155 177 166.608 150.192 173.947 122.917L190.514 61.3501H190.52V40.851H188.329C184.774 40.851 181.893 37.9693 181.893 34.4146C181.893 30.8598 184.774 27.9781 188.329 27.9781H242.236Z" fill="#AAE0FF"/>
<rect width="44.2907" height="28.0221" transform="matrix(-1 0 0 1 236.902 0)" fill="#7D0AD7"/>
<path fill-rule="evenodd" clip-rule="evenodd" d="M177.458 110.217C179.329 109.263 181.496 108.195 184 107C198.609 100.027 201.203 104.202 203.884 108.517C206.548 112.804 209.298 117.23 224 111C236.142 105.855 245.066 104.268 251.363 104.181L256.623 121.775C264.856 149.31 244.233 177 215.494 177C187.249 177 166.701 150.192 174.041 122.917L177.458 110.217Z" fill="url(#paint2_radial_284_188)"/>
<path fill-rule="evenodd" clip-rule="evenodd" d="M328.236 27.9781C331.79 27.9781 334.672 30.8598 334.672 34.4146C334.672 37.9693 331.79 40.851 328.236 40.851H324.466V61.361L342.529 121.775C350.762 149.31 330.14 177 301.401 177C273.155 177 252.608 150.192 259.947 122.917L276.514 61.3501H276.52V40.851H274.329C270.774 40.851 267.893 37.9693 267.893 34.4146C267.893 30.8598 270.774 27.9781 274.329 27.9781H328.236Z" fill="#AAE0FF"/>
<rect width="44.2907" height="28.0221" transform="matrix(-1 0 0 1 322.902 0)" fill="#7D0AD7"/>
<path fill-rule="evenodd" clip-rule="evenodd" d="M268.11 92.9305C278.955 88.761 282.488 91.6146 286.12 94.5483C290.178 97.8259 294.359 101.204 309 95C319.532 90.5374 327.769 90.7906 334.008 92.9612L342.623 121.775C350.856 149.31 330.233 177 301.494 177C273.249 177 252.701 150.192 260.041 122.917L268.11 92.9305Z" fill="url(#paint3_radial_284_188)"/>
<path fill-rule="evenodd" clip-rule="evenodd" d="M414.236 27.9781C417.79 27.9781 420.672 30.8598 420.672 34.4146C420.672 37.9693 417.79 40.851 414.236 40.851H410.466V61.361L428.529 121.775C436.762 149.31 416.14 177 387.401 177C359.155 177 338.608 150.192 345.947 122.917L362.514 61.3501H362.52V40.851H360.329C356.774 40.851 353.893 37.9693 353.893 34.4146C353.893 30.8598 356.774 27.9781 360.329 27.9781H414.236Z" fill="#AAE0FF"/>
<rect width="44.2907" height="28.0221" transform="matrix(-1 0 0 1 408.902 0)" fill="#7D0AD7"/>
<path fill-rule="evenodd" clip-rule="evenodd" d="M350.2 107.461C361.242 104.702 369.461 109.05 377.749 113.434C387.477 118.58 397.3 123.777 411.896 117.593C417.734 115.119 422.205 113.209 425.622 111.738L428.623 121.775C436.856 149.31 416.233 177 387.494 177C359.249 177 338.701 150.192 346.041 122.917L350.2 107.461Z" fill="url(#paint4_radial_284_188)"/>
<defs>
<radialGradient id="paint0_radial_284_188" cx="0" cy="0" r="1" gradientUnits="userSpaceOnUse" gradientTransform="translate(43.8525 117.593) rotate(90) scale(62.5493 61.3064)">
<stop stop-color="#7D0AD7"/>
<stop offset="1" stop-color="#FD90E8"/>
</radialGradient>
<radialGradient id="paint1_radial_284_188" cx="0" cy="0" r="1" gradientUnits="userSpaceOnUse" gradientTransform="translate(129.853 117.593) rotate(90) scale(62.5493 61.3064)">
<stop stop-color="#7D0AD7"/>
<stop offset="1" stop-color="#FD90E8"/>
</radialGradient>
<radialGradient id="paint2_radial_284_188" cx="0" cy="0" r="1" gradientUnits="userSpaceOnUse" gradientTransform="translate(215.853 117.593) rotate(90) scale(62.5493 61.3064)">
<stop stop-color="#7D0AD7"/>
<stop offset="1" stop-color="#FD90E8"/>
</radialGradient>
<radialGradient id="paint3_radial_284_188" cx="0" cy="0" r="1" gradientUnits="userSpaceOnUse" gradientTransform="translate(301.853 117.593) rotate(90) scale(62.5493 61.3064)">
<stop stop-color="#7D0AD7"/>
<stop offset="1" stop-color="#FD90E8"/>
</radialGradient>
<radialGradient id="paint4_radial_284_188" cx="0" cy="0" r="1" gradientUnits="userSpaceOnUse" gradientTransform="translate(387.853 117.593) rotate(90) scale(62.5493 61.3064)">
<stop stop-color="#7D0AD7"/>
<stop offset="1" stop-color="#FD90E8"/>
</radialGradient>
</defs>
</svg>
