<svg width="950" height="492" viewBox="0 0 950 492" fill="none" xmlns="http://www.w3.org/2000/svg">
<path fill-rule="evenodd" clip-rule="evenodd" d="M133.244 100.818C136.545 100.818 139.221 103.494 139.221 106.795C139.221 110.096 136.545 112.772 133.244 112.772H56.7523C53.4512 112.772 50.7751 110.096 50.7751 106.795C50.7751 103.494 53.4512 100.818 56.7522 100.818H133.244ZM132.038 112.772H57.886V178.18C39.3906 184.546 23.2693 196.146 13.6029 213.503C5.6752 227.739 0 243.359 0 259.746C0 326.158 42.533 491.162 95 491.162C147.467 491.162 190 326.158 190 259.746C190 243.261 184.036 227.55 175.804 213.246C166.05 196.297 150.197 184.856 132.038 178.459V112.772Z" fill="#AAE0FF"/>
<path fill-rule="evenodd" clip-rule="evenodd" d="M86.0299 14C91.6599 14 96.2372 18.5295 96.3406 24.1586C96.8228 50.3936 99.2972 119.978 111.997 143.178C118.295 154.684 154.5 226 138 253.5C122.322 279.63 121.541 359.933 144.666 391.459C151.989 392.02 159.117 391.337 166.114 388.527C148.71 443.174 123.3 491.18 95.0002 491.18C62.1911 491.18 33.2666 426.658 16.1978 362.069C18.3845 362.913 20.7901 363.958 23.413 365.097C34.6785 369.989 49.954 376.622 69.119 376.622C70.5879 376.622 72.0245 376.648 73.4294 376.698C77.4116 367.308 75.905 356.566 71.4501 345.902C57.0859 311.516 54.8579 292.976 68.0001 271.5C80.2125 251.543 78.2454 186.384 76.3504 123.615C75.2043 85.6525 74.0847 48.564 76.1441 22.8774C76.5544 17.7593 80.8953 14 86.0299 14Z" fill="url(#paint0_linear_246_916)"/>
<path d="M100 7V7C100 11.9706 95.9706 16 91 16L81 16C76.0294 16 72 11.9706 72 7V7L100 7Z" fill="#4B4242"/>
<rect width="28" height="7" transform="matrix(-1 0 0 1 100 0)" fill="#7D0AD7"/>
<path fill-rule="evenodd" clip-rule="evenodd" d="M323.244 100.818C326.545 100.818 329.221 103.494 329.221 106.795C329.221 110.096 326.545 112.772 323.244 112.772H246.752C243.451 112.772 240.775 110.096 240.775 106.795C240.775 103.494 243.451 100.818 246.752 100.818H323.244ZM322.038 112.772H247.886V178.18C229.391 184.546 213.269 196.146 203.603 213.503C195.675 227.739 190 243.359 190 259.746C190 326.158 232.533 491.162 285 491.162C337.467 491.162 380 326.158 380 259.746C380 243.261 374.036 227.55 365.804 213.246C356.05 196.297 340.197 184.856 322.038 178.459V112.772Z" fill="#AAE0FF"/>
<path fill-rule="evenodd" clip-rule="evenodd" d="M276.03 14C281.66 14 286.237 18.5295 286.34 24.1586C286.823 50.3936 289.297 119.978 301.997 143.178C308.295 154.684 344.5 226 328 253.5C319.355 267.908 315.239 298.787 317.164 328.878C337.477 323.368 357.767 320.463 372.675 323.213C358.332 397.759 324.478 491.18 285 491.18C249.142 491.18 217.924 414.11 201.753 344.114C203.5 345.889 205.387 347.956 207.372 350.133L207.373 350.133C218.652 362.496 233.127 378.362 243.5 364C247.041 359.098 252.246 355.085 258.396 351.801C259.821 351.04 261.303 350.273 262.838 349.501C262.415 348.302 261.951 347.101 261.45 345.902C247.086 311.516 244.858 292.976 258 271.5C270.212 251.543 268.245 186.384 266.35 123.615C265.204 85.6525 264.084 48.564 266.144 22.8774C266.554 17.7593 270.895 14 276.03 14Z" fill="url(#paint1_linear_246_916)"/>
<path d="M290 7V7C290 11.9706 285.971 16 281 16L271 16C266.029 16 262 11.9706 262 7V7L290 7Z" fill="#4B4242"/>
<rect width="28" height="7" transform="matrix(-1 0 0 1 290 0)" fill="#7D0AD7"/>
<path fill-rule="evenodd" clip-rule="evenodd" d="M513.244 100.818C516.545 100.818 519.221 103.494 519.221 106.795C519.221 110.096 516.545 112.772 513.244 112.772H436.752C433.451 112.772 430.775 110.096 430.775 106.795C430.775 103.494 433.451 100.818 436.752 100.818H513.244ZM512.038 112.772H437.886V178.18C419.391 184.546 403.269 196.146 393.603 213.503C385.675 227.739 380 243.359 380 259.746C380 326.158 422.533 491.162 475 491.162C527.467 491.162 570 326.158 570 259.746C570 243.261 564.036 227.55 555.804 213.246C546.05 196.297 530.197 184.856 512.038 178.459V112.772Z" fill="#AAE0FF"/>
<path fill-rule="evenodd" clip-rule="evenodd" d="M466.03 14C471.66 14 476.237 18.5295 476.34 24.1586C476.823 50.3936 479.297 119.978 491.997 143.178C498.295 154.684 534.5 226 518 253.5C509.157 268.238 505.053 300.209 507.305 330.942C524.039 337.683 541.121 341.21 559.608 338.08C543.871 409.602 511.891 491.18 475 491.18C435.071 491.18 400.895 395.615 386.842 320.668C388.233 319.39 389.835 318.267 391.647 316.997C396.254 313.767 402.214 309.589 409.5 299.5C415.263 291.521 426.484 291.97 439.433 296.561C440.052 287.903 442.843 279.928 448 271.5C460.212 251.543 458.245 186.384 456.35 123.615C455.204 85.6525 454.084 48.564 456.144 22.8774C456.554 17.7593 460.895 14 466.03 14Z" fill="url(#paint2_linear_246_916)"/>
<path d="M480 7V7C480 11.9706 475.971 16 471 16L461 16C456.029 16 452 11.9706 452 7V7L480 7Z" fill="#4B4242"/>
<rect width="28" height="7" transform="matrix(-1 0 0 1 480 0)" fill="#7D0AD7"/>
<path fill-rule="evenodd" clip-rule="evenodd" d="M893.244 100.818C896.545 100.818 899.221 103.494 899.221 106.795C899.221 110.096 896.545 112.772 893.244 112.772H816.752C813.451 112.772 810.775 110.096 810.775 106.795C810.775 103.494 813.451 100.818 816.752 100.818H893.244ZM892.038 112.772H817.886V178.18C799.391 184.546 783.269 196.146 773.603 213.503C765.675 227.739 760 243.359 760 259.746C760 326.158 802.533 491.162 855 491.162C907.467 491.162 950 326.158 950 259.746C950 243.261 944.036 227.55 935.804 213.246C926.05 196.297 910.197 184.856 892.038 178.459V112.772Z" fill="#AAE0FF"/>
<path fill-rule="evenodd" clip-rule="evenodd" d="M846.03 14C851.66 14 856.237 18.5295 856.34 24.1586C856.823 50.3936 859.297 119.978 871.997 143.178C878.295 154.684 914.5 226 898 253.5C889.157 268.238 885.053 300.209 887.305 330.942C904.039 337.683 921.121 341.21 939.608 338.08C923.871 409.602 891.891 491.18 855 491.18C815.071 491.18 780.895 395.615 766.842 320.668C768.233 319.39 769.835 318.267 771.647 316.997C776.254 313.767 782.214 309.589 789.5 299.5C795.263 291.521 806.484 291.97 819.433 296.561C820.052 287.903 822.843 279.928 828 271.5C840.212 251.543 838.245 186.384 836.35 123.615C835.204 85.6525 834.084 48.564 836.144 22.8774C836.554 17.7593 840.895 14 846.03 14Z" fill="url(#paint3_linear_246_916)"/>
<path d="M860 7V7C860 11.9706 855.971 16 851 16L841 16C836.029 16 832 11.9706 832 7V7L860 7Z" fill="#4B4242"/>
<rect width="28" height="7" transform="matrix(-1 0 0 1 860 0)" fill="#7D0AD7"/>
<path fill-rule="evenodd" clip-rule="evenodd" d="M703.244 100.818C706.545 100.818 709.221 103.494 709.221 106.795C709.221 110.096 706.545 112.772 703.244 112.772H626.752C623.451 112.772 620.775 110.096 620.775 106.795C620.775 103.494 623.451 100.818 626.752 100.818H703.244ZM702.038 112.772H627.886V178.18C609.391 184.546 593.269 196.146 583.603 213.503C575.675 227.739 570 243.359 570 259.746C570 326.158 612.533 491.162 665 491.162C717.467 491.162 760 326.158 760 259.746C760 243.261 754.036 227.55 745.804 213.246C736.05 196.297 720.197 184.856 702.038 178.459V112.772Z" fill="#AAE0FF"/>
<path fill-rule="evenodd" clip-rule="evenodd" d="M656.03 14C661.66 14 666.237 18.5295 666.34 24.1586C666.823 50.3936 669.297 119.978 681.997 143.178C688.295 154.684 724.5 226 708 253.5C706.182 256.53 704.564 260.289 703.161 264.615C724.479 266.65 744.725 273.602 758.435 285.509C750.317 361.171 711.572 491.18 665 491.18C621.809 491.18 585.35 379.364 573.808 302.778C577.915 295.732 585.137 294.382 594.471 292.637C603.482 290.953 614.46 288.901 626.5 281C629.24 279.202 632.258 277.514 635.487 275.93C636.252 274.463 637.089 272.989 638 271.5C650.212 251.543 648.245 186.384 646.35 123.615C645.204 85.6525 644.084 48.564 646.144 22.8774C646.554 17.7593 650.895 14 656.03 14Z" fill="url(#paint4_linear_246_916)"/>
<path d="M670 7V7C670 11.9706 665.971 16 661 16L651 16C646.029 16 642 11.9706 642 7V7L670 7Z" fill="#4B4242"/>
<rect width="28" height="7" transform="matrix(-1 0 0 1 670 0)" fill="#7D0AD7"/>
<defs>
<linearGradient id="paint0_linear_246_916" x1="34.9497" y1="14" x2="34.9497" y2="417.234" gradientUnits="userSpaceOnUse">
<stop offset="0.355208" stop-color="#EA61E5"/>
<stop offset="0.626042" stop-color="#7D0AD7"/>
<stop offset="0.813542" stop-color="#008BDA"/>
<stop offset="1" stop-color="#8CD0F6"/>
</linearGradient>
<linearGradient id="paint1_linear_246_916" x1="224.949" y1="14" x2="224.949" y2="417.234" gradientUnits="userSpaceOnUse">
<stop offset="0.355208" stop-color="#EA61E5"/>
<stop offset="0.626042" stop-color="#7D0AD7"/>
<stop offset="0.813542" stop-color="#008BDA"/>
<stop offset="1" stop-color="#8CD0F6"/>
</linearGradient>
<linearGradient id="paint2_linear_246_916" x1="414.949" y1="14" x2="414.949" y2="417.234" gradientUnits="userSpaceOnUse">
<stop offset="0.355208" stop-color="#EA61E5"/>
<stop offset="0.626042" stop-color="#7D0AD7"/>
<stop offset="0.813542" stop-color="#008BDA"/>
<stop offset="1" stop-color="#8CD0F6"/>
</linearGradient>
<linearGradient id="paint3_linear_246_916" x1="794.949" y1="14" x2="794.949" y2="417.234" gradientUnits="userSpaceOnUse">
<stop offset="0.355208" stop-color="#EA61E5"/>
<stop offset="0.626042" stop-color="#7D0AD7"/>
<stop offset="0.813542" stop-color="#008BDA"/>
<stop offset="1" stop-color="#8CD0F6"/>
</linearGradient>
<linearGradient id="paint4_linear_246_916" x1="606.715" y1="14" x2="606.715" y2="417.234" gradientUnits="userSpaceOnUse">
<stop offset="0.355208" stop-color="#EA61E5"/>
<stop offset="0.626042" stop-color="#7D0AD7"/>
<stop offset="0.813542" stop-color="#008BDA"/>
<stop offset="1" stop-color="#8CD0F6"/>
</linearGradient>
</defs>
</svg>
