<svg width="715" height="202" viewBox="0 0 715 202" fill="none" xmlns="http://www.w3.org/2000/svg">
<path fill-rule="evenodd" clip-rule="evenodd" d="M99.366 17.9417C103.118 17.9417 106.16 20.9835 106.16 24.7359C106.16 28.4882 103.118 31.5301 99.366 31.5301H93.4722V68.0674C122.21 76.948 143 102.78 143 133.264C143 171.091 110.988 201.755 71.5 201.755C32.0117 201.755 9.15527e-05 171.091 9.15527e-05 133.264C9.15527e-05 102.779 20.792 76.9451 49.5328 68.0659V31.5301H43.6407C39.8884 31.5301 36.8465 28.4882 36.8465 24.7359C36.8465 20.9835 39.8884 17.9417 43.6407 17.9417H99.366Z" fill="#AAE0FF"/>
<rect width="30.3204" height="17.8434" transform="matrix(-1 0 0 1 87.0615 0)" fill="#7D0AD7"/>
<path fill-rule="evenodd" clip-rule="evenodd" d="M139.521 112.344C141.779 119.009 143 126.122 143 133.509C143 171.335 110.988 202 71.5 202C32.0116 202 0 171.335 0 133.509C0 127.329 0.854274 121.341 2.45586 115.646C7.15941 116.364 13.457 119.553 20.9932 123.37C24.655 125.224 28.6092 127.226 32.8151 129.165C44.5734 134.586 58.8766 132.698 72.5572 130.892C79.1694 130.019 85.6362 129.165 91.5999 129.165C110.705 129.165 124.399 121.107 133.752 115.603C135.899 114.339 137.818 113.21 139.521 112.344Z" fill="url(#paint0_linear_284_262)"/>
<path fill-rule="evenodd" clip-rule="evenodd" d="M242.366 17.9417C246.118 17.9417 249.16 20.9835 249.16 24.7359C249.16 28.4882 246.118 31.5301 242.366 31.5301H236.472V68.0674C265.21 76.948 286 102.78 286 133.264C286 171.091 253.988 201.755 214.5 201.755C175.012 201.755 143 171.091 143 133.264C143 102.779 163.792 76.9451 192.533 68.0659V31.5301H186.641C182.888 31.5301 179.846 28.4882 179.846 24.7359C179.846 20.9835 182.888 17.9417 186.641 17.9417H242.366Z" fill="#AAE0FF"/>
<rect width="30.3204" height="17.8434" transform="matrix(-1 0 0 1 230.062 0)" fill="#7D0AD7"/>
<path fill-rule="evenodd" clip-rule="evenodd" d="M282.521 112.344C284.779 119.009 286 126.122 286 133.509C286 171.335 253.988 202 214.5 202C175.012 202 143 171.335 143 133.509C143 122.401 145.76 111.912 150.659 102.635C158.043 99.5072 167.715 100.028 178.5 105C183.738 107.415 189.24 110.559 194.869 113.777C207.984 121.272 221.794 129.165 234.6 129.165C253.705 129.165 267.399 121.107 276.752 115.603C278.899 114.339 280.818 113.21 282.521 112.344Z" fill="url(#paint1_linear_284_262)"/>
<path fill-rule="evenodd" clip-rule="evenodd" d="M385.366 17.9417C389.118 17.9417 392.16 20.9835 392.16 24.7359C392.16 28.4882 389.118 31.5301 385.366 31.5301H379.472V68.0674C408.21 76.948 429 102.78 429 133.264C429 171.091 396.988 201.755 357.5 201.755C318.012 201.755 286 171.091 286 133.264C286 102.779 306.792 76.9451 335.533 68.0659V31.5301H329.641C325.888 31.5301 322.846 28.4882 322.846 24.7359C322.846 20.9835 325.888 17.9417 329.641 17.9417H385.366Z" fill="#AAE0FF"/>
<rect width="30.3204" height="17.8434" transform="matrix(-1 0 0 1 373.062 0)" fill="#7D0AD7"/>
<path fill-rule="evenodd" clip-rule="evenodd" d="M412.553 89.8037C422.825 101.663 429 116.895 429 133.509C429 171.335 396.988 202 357.5 202C318.012 202 286 171.335 286 133.509C286 123.351 288.308 113.71 292.45 105.04C297.384 104.882 303.821 106.73 312 110.5C329.441 118.541 375.5 119 406 95.5C408.36 93.3494 410.54 91.4545 412.553 89.8037Z" fill="url(#paint2_linear_284_262)"/>
<path fill-rule="evenodd" clip-rule="evenodd" d="M528.366 17.9417C532.118 17.9417 535.16 20.9835 535.16 24.7359C535.16 28.4882 532.118 31.5301 528.366 31.5301H522.472V68.0674C551.21 76.948 572 102.78 572 133.264C572 171.091 539.988 201.755 500.5 201.755C461.012 201.755 429 171.091 429 133.264C429 102.779 449.792 76.9451 478.533 68.0659V31.5301H472.641C468.888 31.5301 465.846 28.4882 465.846 24.7359C465.846 20.9835 468.888 17.9417 472.641 17.9417H528.366Z" fill="#AAE0FF"/>
<rect width="30.3204" height="17.8434" transform="matrix(-1 0 0 1 516.062 0)" fill="#7D0AD7"/>
<path fill-rule="evenodd" clip-rule="evenodd" d="M568.352 111.853C570.719 118.659 572 125.941 572 133.509C572 171.335 539.988 202 500.5 202C461.012 202 429 171.335 429 133.509C429 123.629 431.184 114.238 435.114 105.754C441.813 103.929 450.813 105.573 461.5 110.5C464.788 112.016 468.932 114.458 473.698 117.267C494.216 129.358 526.249 148.236 551 129.166C558.564 122.272 564.186 116.393 568.352 111.853Z" fill="url(#paint3_linear_284_262)"/>
<path fill-rule="evenodd" clip-rule="evenodd" d="M671.366 17.9417C675.118 17.9417 678.16 20.9835 678.16 24.7359C678.16 28.4882 675.118 31.5301 671.366 31.5301H665.472V68.0674C694.21 76.948 715 102.78 715 133.264C715 171.091 682.988 201.755 643.5 201.755C604.012 201.755 572 171.091 572 133.264C572 102.779 592.792 76.9451 621.533 68.0659V31.5301H615.641C611.888 31.5301 608.846 28.4882 608.846 24.7359C608.846 20.9835 611.888 17.9417 615.641 17.9417H671.366Z" fill="#AAE0FF"/>
<rect width="30.3204" height="17.8434" transform="matrix(-1 0 0 1 659.062 0)" fill="#7D0AD7"/>
<path fill-rule="evenodd" clip-rule="evenodd" d="M707.197 102.364C712.186 111.707 715 122.293 715 133.509C715 171.335 682.988 202 643.5 202C604.012 202 572 171.335 572 133.509C572 117.425 577.788 102.636 587.477 90.9481C591.933 94.2295 597.095 100.987 603 112.5C624.792 134.628 635.073 127.189 648.522 117.457C657.764 110.77 668.502 103 685.5 103C694.303 103 701.441 102.734 707.197 102.364Z" fill="url(#paint4_linear_284_262)"/>
<defs>
<linearGradient id="paint0_linear_284_262" x1="71.7681" y1="110.583" x2="71.7681" y2="204.871" gradientUnits="userSpaceOnUse">
<stop stop-color="#7D0AD7"/>
<stop offset="1" stop-color="#20EFA5"/>
</linearGradient>
<linearGradient id="paint1_linear_284_262" x1="214.768" y1="98.6924" x2="214.768" y2="205.245" gradientUnits="userSpaceOnUse">
<stop stop-color="#7D0AD7"/>
<stop offset="1" stop-color="#20EFA5"/>
</linearGradient>
<linearGradient id="paint2_linear_284_262" x1="357.768" y1="87.5994" x2="357.768" y2="205.593" gradientUnits="userSpaceOnUse">
<stop stop-color="#7D0AD7"/>
<stop offset="1" stop-color="#20EFA5"/>
</linearGradient>
<linearGradient id="paint3_linear_284_262" x1="500.768" y1="100.375" x2="500.768" y2="205.192" gradientUnits="userSpaceOnUse">
<stop stop-color="#7D0AD7"/>
<stop offset="1" stop-color="#20EFA5"/>
</linearGradient>
<linearGradient id="paint4_linear_284_262" x1="643.768" y1="88.7662" x2="643.768" y2="205.557" gradientUnits="userSpaceOnUse">
<stop stop-color="#7D0AD7"/>
<stop offset="1" stop-color="#20EFA5"/>
</linearGradient>
</defs>
</svg>
