<svg width="1280" height="376" viewBox="0 0 1280 376" fill="none" xmlns="http://www.w3.org/2000/svg">
<rect x="72.5762" y="18.9248" width="64.4893" height="57.2581" fill="#AAE0FF"/>
<rect x="53.9849" width="101.565" height="19.9246" rx="9.96231" fill="#AAE0FF"/>
<path fill-rule="evenodd" clip-rule="evenodd" d="M198.217 215.237C205.522 201.549 209.643 186.044 209.643 169.617C209.643 114.18 162.713 69.2397 104.821 69.2397C46.9301 69.2397 0 114.18 0 169.617C0 186.044 4.12053 201.549 11.4258 215.237H198.217Z" fill="#AAE0FF"/>
<path fill-rule="evenodd" clip-rule="evenodd" d="M162 332.628C148.306 335.408 137.999 347.514 137.999 362.029V375.029H255.999V362.029C255.999 345.46 242.568 332.029 225.999 332.029H185V198C185 192.477 180.523 188 175 188H172C166.477 188 162 192.477 162 198V332.628Z" fill="#AAE0FF"/>
<path fill-rule="evenodd" clip-rule="evenodd" d="M184.999 215.237V215.208H198.216C205.521 201.513 209.642 186 209.642 169.565C209.642 134.218 178.386 143.922 140.73 155.612C119.295 162.266 95.7851 169.565 74.7855 169.565C48.8961 169.565 31.2057 158.472 19.5587 151.168C10.6999 145.614 5.33741 142.251 2.52264 147.629C0.871205 154.706 0 162.064 0 169.617C0 170.227 0.00567065 170.835 0.0169642 171.442C0.318067 187.181 4.39826 202.036 11.4248 215.208H161.999V215.237H184.999Z" fill="url(#paint0_linear_241_567)"/>
<rect x="584.576" y="18.9248" width="64.4893" height="57.2581" fill="#AAE0FF"/>
<rect x="565.985" width="101.565" height="19.9246" rx="9.96231" fill="#AAE0FF"/>
<path fill-rule="evenodd" clip-rule="evenodd" d="M710.217 215.237C717.522 201.549 721.643 186.044 721.643 169.617C721.643 114.18 674.713 69.2397 616.821 69.2397C558.93 69.2397 512 114.18 512 169.617C512 186.044 516.121 201.549 523.426 215.237H710.217Z" fill="#AAE0FF"/>
<path fill-rule="evenodd" clip-rule="evenodd" d="M674 332.628C660.306 335.408 649.999 347.514 649.999 362.029V375.029H767.999V362.029C767.999 345.46 754.568 332.029 737.999 332.029H697V198C697 192.477 692.523 188 687 188H684C678.477 188 674 192.477 674 198V332.628Z" fill="#AAE0FF"/>
<path fill-rule="evenodd" clip-rule="evenodd" d="M697 215.208H710.216C717.521 201.513 721.642 186 721.642 169.565C721.642 135.892 693.171 147.318 657.844 161.496C634.981 170.672 609.246 181 586.5 181C558.324 181 539.927 165.152 528.464 155.278C520.954 148.808 516.42 144.903 514.064 149.699C512.71 156.137 512 162.798 512 169.617C512 170.227 512.006 170.835 512.017 171.441C512.318 187.181 516.398 202.036 523.425 215.208H673.999V215.237H674V270H697V215.208Z" fill="url(#paint1_linear_241_567)"/>
<rect x="328.576" y="18.9248" width="64.4893" height="57.2581" fill="#AAE0FF"/>
<rect x="309.985" width="101.565" height="19.9246" rx="9.96231" fill="#AAE0FF"/>
<path fill-rule="evenodd" clip-rule="evenodd" d="M454.217 215.237C461.522 201.549 465.643 186.044 465.643 169.617C465.643 114.18 418.713 69.2397 360.821 69.2397C302.93 69.2397 256 114.18 256 169.617C256 186.044 260.121 201.549 267.426 215.237H454.217Z" fill="#AAE0FF"/>
<path fill-rule="evenodd" clip-rule="evenodd" d="M418 332.628C404.306 335.408 393.999 347.514 393.999 362.029V375.029H511.999V362.029C511.999 345.46 498.568 332.029 481.999 332.029H441V198C441 192.477 436.523 188 431 188H428C422.477 188 418 192.477 418 198V332.628Z" fill="#AAE0FF"/>
<path fill-rule="evenodd" clip-rule="evenodd" d="M441 215.208H454.216C461.521 201.513 465.642 186 465.642 169.565C465.642 135.892 437.171 147.318 401.844 161.496C378.981 170.672 353.246 181 330.5 181C302.324 181 283.927 165.152 272.464 155.278C264.954 148.808 260.42 144.903 258.064 149.699C256.71 156.137 256 162.798 256 169.617C256 170.227 256.006 170.835 256.017 171.441C256.318 187.181 260.398 202.036 267.425 215.208H417.999V215.237H418V231H441V215.208Z" fill="url(#paint2_linear_241_567)"/>
<rect x="840.576" y="18.9248" width="64.4893" height="57.2581" fill="#AAE0FF"/>
<rect x="821.985" width="101.565" height="19.9246" rx="9.96231" fill="#AAE0FF"/>
<path fill-rule="evenodd" clip-rule="evenodd" d="M966.217 215.237C973.522 201.549 977.643 186.044 977.643 169.617C977.643 114.18 930.713 69.2397 872.821 69.2397C814.93 69.2397 768 114.18 768 169.617C768 186.044 772.121 201.549 779.426 215.237H966.217Z" fill="#AAE0FF"/>
<path fill-rule="evenodd" clip-rule="evenodd" d="M930 332.628C916.306 335.408 905.999 347.514 905.999 362.029V375.029H1024V362.029C1024 345.46 1010.57 332.029 993.999 332.029H953V198C953 192.477 948.523 188 943 188H940C934.477 188 930 192.477 930 198V332.628Z" fill="#AAE0FF"/>
<path fill-rule="evenodd" clip-rule="evenodd" d="M953 215.208H966.216C973.521 201.513 977.642 186 977.642 169.565C977.642 135.892 949.171 147.318 913.844 161.496C890.981 170.672 865.246 181 842.5 181C814.324 181 795.927 165.152 784.464 155.278C776.954 148.808 772.42 144.903 770.064 149.699C768.71 156.137 768 162.798 768 169.617C768 170.227 768.006 170.835 768.017 171.441C768.318 187.181 772.398 202.036 779.425 215.208H929.999V215.237H930V290H953V215.208Z" fill="url(#paint3_linear_241_567)"/>
<rect x="1096.58" y="18.9248" width="64.4893" height="57.2581" fill="#AAE0FF"/>
<rect x="1077.98" width="101.565" height="19.9246" rx="9.96231" fill="#AAE0FF"/>
<path fill-rule="evenodd" clip-rule="evenodd" d="M1222.22 215.237C1229.52 201.549 1233.64 186.044 1233.64 169.617C1233.64 114.18 1186.71 69.2397 1128.82 69.2397C1070.93 69.2397 1024 114.18 1024 169.617C1024 186.044 1028.12 201.549 1035.43 215.237H1222.22Z" fill="#AAE0FF"/>
<path fill-rule="evenodd" clip-rule="evenodd" d="M1186 332.465C1172.31 335.245 1162 347.351 1162 361.865V374.865H1280V361.865C1280 345.297 1266.57 331.865 1250 331.865H1209V198C1209 192.477 1204.52 188 1199 188H1196C1190.48 188 1186 192.477 1186 198V332.465Z" fill="#AAE0FF"/>
<path fill-rule="evenodd" clip-rule="evenodd" d="M1209 216.644H1222.22C1229.52 202.949 1233.64 187.436 1233.64 171C1233.64 137.327 1205.17 148.754 1169.84 162.931C1146.98 172.107 1121.25 182.435 1098.5 182.435C1070.32 182.435 1051.93 166.588 1040.46 156.713C1032.95 150.244 1028.42 146.338 1026.06 151.135C1024.71 157.573 1024 164.233 1024 171.053C1024 171.662 1024.01 172.27 1024.02 172.877C1024.32 188.616 1028.4 203.471 1035.42 216.644H1186V216.672H1186V332.6C1172.31 335.38 1162 347.486 1162 362V375H1280V362C1280 345.431 1266.57 332 1250 332H1209V216.644Z" fill="url(#paint4_linear_241_567)"/>
<defs>
<linearGradient id="paint0_linear_241_567" x1="104.813" y1="144.913" x2="104.813" y2="243.763" gradientUnits="userSpaceOnUse">
<stop stop-color="#26F9AD"/>
<stop offset="0.789669" stop-color="#00B574"/>
</linearGradient>
<linearGradient id="paint1_linear_241_567" x1="616.813" y1="147.565" x2="616.813" y2="244.007" gradientUnits="userSpaceOnUse">
<stop stop-color="#26F9AD"/>
<stop offset="0.789669" stop-color="#00B574"/>
</linearGradient>
<linearGradient id="paint2_linear_241_567" x1="360.813" y1="147.565" x2="360.813" y2="244.007" gradientUnits="userSpaceOnUse">
<stop stop-color="#26F9AD"/>
<stop offset="0.789669" stop-color="#00B574"/>
</linearGradient>
<linearGradient id="paint3_linear_241_567" x1="872.813" y1="147.565" x2="872.813" y2="276.918" gradientUnits="userSpaceOnUse">
<stop stop-color="#26F9AD"/>
<stop offset="0.789669" stop-color="#00B574"/>
</linearGradient>
<linearGradient id="paint4_linear_241_567" x1="1131.99" y1="149" x2="1131.99" y2="355.572" gradientUnits="userSpaceOnUse">
<stop stop-color="#26F9AD"/>
<stop offset="0.789669" stop-color="#00B574"/>
</linearGradient>
</defs>
</svg>
