<svg width="1051" height="518" viewBox="0 0 1051 518" fill="none" xmlns="http://www.w3.org/2000/svg">
<path fill-rule="evenodd" clip-rule="evenodd" d="M204.028 226.742C202.342 225.108 200.43 223.761 198.368 222.73V92.6919C198.368 42.0519 157.316 1 106.676 1C56.0356 1 14.9837 42.0519 14.9837 92.6919V222.107C12.4202 223.184 10.0524 224.732 8.01268 226.696C-6.73896 240.905 3.319 265.846 23.8007 265.846H49.7758C45.8405 265.885 42.0665 267.426 39.2281 270.158C29.2179 279.791 36.0367 296.711 49.9293 296.711H161.528C175.399 296.711 182.228 279.835 172.261 270.188C169.419 267.438 165.632 265.885 161.682 265.846H188.193C208.643 265.846 218.716 240.97 204.028 226.742Z" fill="#AAE0FF"/>
<path fill-rule="evenodd" clip-rule="evenodd" d="M76.6509 315.793C72.5352 315.793 69.1987 319.129 69.1987 323.245C69.1987 327.36 72.5352 330.697 76.6509 330.697H83.0609V370.806C51.6888 380.52 28.9951 408.767 28.9951 442.1C28.9951 483.466 63.9459 517 107.06 517C150.174 517 185.125 483.466 185.125 442.1C185.125 408.782 162.451 380.545 131.101 370.819V330.697H137.423C141.539 330.697 144.875 327.36 144.875 323.245C144.875 319.129 141.539 315.793 137.423 315.793H76.6509Z" fill="#AAE0FF"/>
<path fill-rule="evenodd" clip-rule="evenodd" d="M198.368 222.731C200.43 223.762 202.342 225.109 204.028 226.742C218.716 240.971 208.643 265.846 188.193 265.846H161.655C165.615 265.878 169.413 267.432 172.261 270.189C182.228 279.836 175.399 296.711 161.528 296.711H119.22C110.734 309.099 92.3425 342.759 120.686 369.576C137.555 385.536 134.76 390.869 130.16 399.646C125.101 409.301 117.857 423.122 132.203 459.839C136.568 471.012 139.224 479.12 140.506 484.921C143.27 484.64 145.949 484.235 148.512 483.672C152.922 482.702 157.069 481.701 160.908 480.774L160.909 480.774C166.63 479.393 171.669 478.176 175.887 477.473C162.724 501.001 136.839 517 107.06 517C76.4054 517 49.8779 500.048 37.1054 475.381C38.7669 475.796 40.6169 476.315 42.6658 476.89L42.6704 476.891C49.7245 478.871 59.1345 481.511 71.3172 482.837C64.538 467.853 62.4775 446.427 66.4845 440.425C69.1354 436.454 73.379 433.424 77.8716 430.216C88.8585 422.372 101.335 413.465 95.6481 387.127C89.0297 356.473 87.7295 311.447 87.4774 296.711H49.9293C36.0368 296.711 29.2179 279.791 39.2282 270.158C42.0731 267.421 45.8578 265.878 49.8028 265.846H23.8008C3.31908 265.846 -6.73889 240.905 8.01276 226.697C10.0525 224.732 12.4202 223.184 14.9838 222.107V210.576H27.7064C40.7197 210.576 53.4483 207.013 65.4394 201.957C88.6101 192.188 127.199 181.154 136.885 210.576C145.781 237.597 175.32 226.958 195.887 215.444C196.7 214.989 197.527 214.566 198.368 214.177V222.731Z" fill="url(#paint0_linear_246_838)"/>
<path fill-rule="evenodd" clip-rule="evenodd" d="M414.026 227.742C412.341 226.109 410.429 224.762 408.366 223.731V93.6917C408.366 43.0518 367.314 2.00012 316.675 2.00012C266.035 2.00012 224.983 43.0519 224.983 93.6918V223.107C222.419 224.185 220.052 225.732 218.012 227.697C203.26 241.906 213.318 266.846 233.8 266.846H259.772C255.838 266.886 252.065 268.427 249.227 271.158C239.217 280.791 246.036 297.711 259.929 297.711H371.527C385.398 297.711 392.227 280.836 382.26 271.189C379.419 268.439 375.633 266.886 371.683 266.846H398.192C418.642 266.846 428.715 241.971 414.026 227.742Z" fill="#AAE0FF"/>
<path fill-rule="evenodd" clip-rule="evenodd" d="M286.65 316.793C282.534 316.793 279.198 320.129 279.198 324.245C279.198 328.361 282.534 331.697 286.65 331.697H293.06V371.806C261.688 381.52 238.994 409.767 238.994 443.1C238.994 484.466 273.945 518 317.059 518C360.173 518 395.124 484.466 395.124 443.1C395.124 409.782 372.45 381.546 341.1 371.819V331.697H347.422C351.538 331.697 354.874 328.361 354.874 324.245C354.874 320.129 351.538 316.793 347.422 316.793H286.65Z" fill="#AAE0FF"/>
<path fill-rule="evenodd" clip-rule="evenodd" d="M408.366 223.731C410.429 224.762 412.341 226.109 414.026 227.742C428.715 241.971 418.642 266.846 398.192 266.846H371.657C375.616 266.88 379.413 268.434 382.26 271.189C392.227 280.836 385.398 297.712 371.527 297.712H329.22C320.733 310.099 302.342 343.76 330.685 370.576C347.554 386.536 344.759 391.87 340.16 400.647C335.1 410.302 327.857 424.123 342.202 460.839C342.561 461.758 342.908 462.656 343.244 463.533C346.953 462.282 350.617 461.103 354.22 460.107C370.152 455.705 384.355 456.708 392.646 461.892C383.956 494.163 353.409 518 317.059 518C281.238 518 251.053 494.852 241.865 463.296C244.565 463.547 248.129 464.804 252.67 466.406C258.981 468.632 267.177 471.524 277.558 473.302C273.926 460.213 273.354 446.114 276.484 441.425C279.135 437.454 283.379 434.424 287.871 431.217C298.858 423.373 311.334 414.466 305.648 388.127C299.029 357.473 297.729 312.447 297.477 297.712H259.929C246.036 297.712 239.217 280.792 249.227 271.159C252.071 268.422 255.855 266.88 259.798 266.846H233.8C213.318 266.846 203.26 241.906 218.012 227.697C220.052 225.732 222.419 224.185 224.983 223.107V211.576H237.706C250.719 211.576 263.448 208.013 275.439 202.957C298.61 193.189 337.198 182.154 346.884 211.576C355.78 238.598 385.319 227.958 405.886 216.444C406.699 215.989 407.526 215.567 408.366 215.178V223.731Z" fill="url(#paint1_linear_246_838)"/>
<path fill-rule="evenodd" clip-rule="evenodd" d="M624.031 225.742C622.345 224.109 620.433 222.762 618.37 221.731V91.6916C618.37 41.0517 577.319 0 526.679 0C476.039 0 434.987 41.0518 434.987 91.6917V221.107C432.424 222.184 430.056 223.732 428.016 225.697C413.264 239.905 423.322 264.846 443.804 264.846H469.776C465.842 264.886 462.069 266.427 459.231 269.158C449.221 278.791 456.04 295.711 469.933 295.711H581.531C595.402 295.711 602.231 278.835 592.264 269.189C589.423 266.439 585.637 264.886 581.687 264.846H608.196C628.646 264.846 638.719 239.971 624.031 225.742Z" fill="#AAE0FF"/>
<path fill-rule="evenodd" clip-rule="evenodd" d="M496.654 314.793C492.538 314.793 489.201 318.129 489.201 322.245C489.201 326.361 492.538 329.697 496.654 329.697H503.064V369.806C471.692 379.521 448.998 407.768 448.998 441.1C448.998 482.466 483.949 516 527.063 516C570.176 516 605.127 482.466 605.127 441.1C605.127 407.782 582.454 379.546 551.104 369.819V329.697H557.426C561.542 329.697 564.878 326.361 564.878 322.245C564.878 318.129 561.542 314.793 557.426 314.793H496.654Z" fill="#AAE0FF"/>
<path fill-rule="evenodd" clip-rule="evenodd" d="M618.37 221.731C620.433 222.762 622.345 224.109 624.03 225.742C638.719 239.971 628.646 264.846 608.196 264.846H581.661C585.62 264.88 589.417 266.433 592.264 269.189C602.231 278.836 595.402 295.711 581.531 295.711H539.224C530.737 308.099 512.346 341.759 540.689 368.576C557.558 384.536 554.763 389.87 550.163 398.647C545.527 407.493 539.058 419.838 549.044 450.09C555.304 449.557 560.544 448.734 564.224 447.545C581.367 442.006 596.51 443.786 604.438 451.099C599.343 487.738 566.643 516 527.063 516C486.105 516 452.515 485.737 449.257 447.246C452.262 447.43 455.838 447.545 460.069 447.545C466.937 448.2 475.358 448.876 484.457 449.448C484.521 444.973 485.182 441.38 486.488 439.425C489.139 435.454 493.382 432.424 497.875 429.217C508.862 421.373 521.338 412.465 515.651 386.127C509.033 355.473 507.733 310.447 507.481 295.711H469.933C456.04 295.711 449.221 278.791 459.231 269.158C462.075 266.421 465.859 264.879 469.802 264.846H443.804C423.322 264.846 413.264 239.905 428.016 225.697C430.056 223.732 432.423 222.184 434.987 221.107V209.576H447.71C460.723 209.576 473.451 206.013 485.442 200.957C508.613 191.188 547.202 180.154 556.888 209.576C565.783 236.597 595.323 225.958 615.89 214.444C616.702 213.989 617.53 213.567 618.37 213.177V221.731Z" fill="url(#paint2_linear_246_838)"/>
<path fill-rule="evenodd" clip-rule="evenodd" d="M834.031 225.742C832.345 224.109 830.433 222.762 828.37 221.731V91.6916C828.37 41.0517 787.319 0 736.679 0C686.039 0 644.987 41.0518 644.987 91.6917V221.107C642.424 222.184 640.056 223.732 638.016 225.697C623.264 239.906 633.322 264.846 653.804 264.846H679.776C675.842 264.886 672.069 266.427 669.231 269.158C659.221 278.791 666.04 295.711 679.933 295.711H791.531C805.402 295.711 812.231 278.836 802.264 269.189C799.423 266.439 795.637 264.886 791.687 264.846H818.196C838.646 264.846 848.719 239.971 834.031 225.742Z" fill="#AAE0FF"/>
<path fill-rule="evenodd" clip-rule="evenodd" d="M706.654 314.793C702.538 314.793 699.202 318.129 699.202 322.245C699.202 326.361 702.538 329.697 706.654 329.697H713.064V369.806C681.692 379.52 658.998 407.768 658.998 441.1C658.998 482.466 693.949 516 737.063 516C780.176 516 815.127 482.466 815.127 441.1C815.127 407.782 792.454 379.546 761.104 369.819V329.697H767.426C771.542 329.697 774.878 326.361 774.878 322.245C774.878 318.129 771.542 314.793 767.426 314.793H706.654Z" fill="#AAE0FF"/>
<path fill-rule="evenodd" clip-rule="evenodd" d="M828.37 221.731C830.433 222.762 832.345 224.109 834.03 225.742C848.719 239.971 838.646 264.846 818.196 264.846H791.661C795.62 264.88 799.417 266.433 802.264 269.189C812.231 278.836 805.402 295.711 791.531 295.711H749.224C740.737 308.099 722.346 341.76 750.689 368.576C767.558 384.536 764.763 389.87 760.163 398.647C756.13 406.344 750.708 416.689 755.944 439.171C757.497 439.057 759.083 438.771 760.704 438.279C793.305 428.382 808.081 428.525 814.772 433.909C815.007 436.276 815.127 438.674 815.127 441.1C815.127 482.466 780.177 516 737.063 516C693.949 516 658.998 482.466 658.998 441.1C658.998 433.307 660.239 425.791 662.541 418.726C663.028 419.632 663.534 420.798 664.06 422.232C667.151 430.676 688.026 437.692 703.16 432.682C704.656 431.515 706.249 430.377 707.875 429.217C718.862 421.373 731.338 412.466 725.651 386.127C719.033 355.473 717.733 310.447 717.481 295.711H679.933C666.04 295.711 659.221 278.792 669.231 269.158C672.075 266.422 675.859 264.88 679.802 264.846H653.804C633.322 264.846 623.264 239.906 638.016 225.697C640.056 223.732 642.423 222.185 644.987 221.107V209.576H657.71C670.723 209.576 683.451 206.013 695.442 200.957C718.613 191.188 757.202 180.154 766.888 209.576C775.783 236.598 805.323 225.958 825.89 214.444C826.702 213.989 827.53 213.567 828.37 213.178V221.731Z" fill="url(#paint3_linear_246_838)"/>
<path fill-rule="evenodd" clip-rule="evenodd" d="M1044.03 225.742C1042.34 224.109 1040.43 222.761 1038.37 221.731V91.6912C1038.37 41.0515 997.318 0 946.679 0C896.039 0 854.988 41.0516 854.988 91.6912V221.107C852.424 222.184 850.056 223.732 848.017 225.697C833.265 239.905 843.323 264.846 863.805 264.846H889.776C885.842 264.886 882.069 266.427 879.231 269.158C869.221 278.791 876.04 295.711 889.933 295.711H1001.53C1015.4 295.711 1022.23 278.835 1012.26 269.188C1009.42 266.439 1005.64 264.886 1001.69 264.846H1028.2C1048.65 264.846 1058.72 239.971 1044.03 225.742Z" fill="#AAE0FF"/>
<path fill-rule="evenodd" clip-rule="evenodd" d="M916.653 314.793C912.538 314.793 909.201 318.129 909.201 322.245C909.201 326.361 912.538 329.697 916.653 329.697H923.063V369.806C891.692 379.521 868.998 407.768 868.998 441.1C868.998 482.466 903.949 516 947.062 516C990.176 516 1025.13 482.466 1025.13 441.1C1025.13 407.782 1002.45 379.546 971.103 369.819V329.697H977.425C981.541 329.697 984.877 326.361 984.877 322.245C984.877 318.129 981.541 314.793 977.425 314.793H916.653Z" fill="#AAE0FF"/>
<path fill-rule="evenodd" clip-rule="evenodd" d="M1038.37 221.731C1040.43 222.761 1042.34 224.109 1044.03 225.742C1058.72 239.971 1048.65 264.846 1028.2 264.846H1001.66C1005.62 264.879 1009.42 266.433 1012.26 269.189C1022.23 278.836 1015.4 295.711 1001.53 295.711H959.223C950.737 308.098 932.345 341.759 960.688 368.576C977.557 384.536 974.762 389.87 970.162 398.647C967.768 403.217 964.883 408.72 964.031 417.144C971.503 421.304 979.536 424.871 988.229 422.232C1003.82 417.499 1014.2 416.107 1021 416.999C1023.67 424.562 1025.13 432.668 1025.13 441.1C1025.13 482.466 990.176 515.999 947.062 515.999C903.949 515.999 868.998 482.466 868.998 441.1C868.998 429.638 871.681 418.778 876.478 409.066C898.091 425.14 919.838 422.551 933.982 412.798C937.065 406.489 938.239 398.113 935.651 386.127C929.032 355.473 927.732 310.446 927.48 295.711H889.932C876.04 295.711 869.221 278.791 879.231 269.158C882.075 266.421 885.859 264.879 889.802 264.846H863.805C843.323 264.846 833.265 239.905 848.017 225.697C850.056 223.732 852.424 222.184 854.988 221.107V209.576H867.71C880.723 209.576 893.451 206.013 905.442 200.957C928.613 191.188 967.201 180.154 976.887 209.576C985.783 236.597 1015.32 225.958 1035.89 214.444C1036.7 213.989 1037.53 213.566 1038.37 213.177V221.731Z" fill="url(#paint4_linear_246_838)"/>
<defs>
<linearGradient id="paint0_linear_246_838" x1="-271.548" y1="205.609" x2="-271.415" y2="486.613" gradientUnits="userSpaceOnUse">
<stop stop-color="#7D0AD7"/>
<stop offset="0.735482" stop-color="#008BDA"/>
<stop offset="0.975065" stop-color="#EA61E5"/>
</linearGradient>
<linearGradient id="paint1_linear_246_838" x1="-61.5478" y1="206.609" x2="-61.4152" y2="487.613" gradientUnits="userSpaceOnUse">
<stop stop-color="#7D0AD7"/>
<stop offset="0.735482" stop-color="#008BDA"/>
<stop offset="0.975065" stop-color="#EA61E5"/>
</linearGradient>
<linearGradient id="paint2_linear_246_838" x1="148.456" y1="204.609" x2="148.589" y2="485.613" gradientUnits="userSpaceOnUse">
<stop stop-color="#7D0AD7"/>
<stop offset="0.735482" stop-color="#008BDA"/>
<stop offset="0.975065" stop-color="#EA61E5"/>
</linearGradient>
<linearGradient id="paint3_linear_246_838" x1="358.456" y1="204.609" x2="358.589" y2="485.613" gradientUnits="userSpaceOnUse">
<stop stop-color="#7D0AD7"/>
<stop offset="0.735482" stop-color="#008BDA"/>
<stop offset="0.975065" stop-color="#EA61E5"/>
</linearGradient>
<linearGradient id="paint4_linear_246_838" x1="568.458" y1="204.609" x2="568.591" y2="485.613" gradientUnits="userSpaceOnUse">
<stop stop-color="#7D0AD7"/>
<stop offset="0.735482" stop-color="#008BDA"/>
<stop offset="0.975065" stop-color="#EA61E5"/>
</linearGradient>
</defs>
</svg>
