<svg width="482" height="427" viewBox="0 0 482 427" fill="none" xmlns="http://www.w3.org/2000/svg">
<rect x="-0.5" y="0.5" width="205.831" height="353.939" rx="39.5" transform="matrix(-1 0 0 1 206.076 71.4576)" fill="#AAE0FF" stroke="#008BDA"/>
<path d="M207.076 269.721H0.000595093V270.712C0.000595093 292.803 17.9092 310.712 40.0006 310.712H167.076C189.168 310.712 207.076 292.803 207.076 270.712V269.721Z" fill="#4B4242"/>
<path d="M0.000488281 112.315H207.076V111.324C207.076 89.233 189.167 71.3244 167.076 71.3244H40.0005C17.9091 71.3244 0.000488281 89.233 0.000488281 111.324V112.315Z" fill="#4B4242"/>
<rect x="144.463" y="270.522" width="81.6034" height="35.3218" transform="rotate(180 144.463 270.522)" fill="#4B4242"/>
<rect width="29.9489" height="122.973" transform="matrix(-1 0 0 1 118.941 112.315)" fill="#7D0AD7"/>
<path d="M32.5166 71.3244H174.56V71.3244C174.56 60.9106 166.118 52.4685 155.704 52.4685H51.3725C40.9587 52.4685 32.5166 60.9106 32.5166 71.3244V71.3244Z" fill="#7D0AD7"/>
<rect width="142.044" height="18.8559" rx="9.42794" transform="matrix(-1 0 0 1 174.561 26.2343)" fill="#7D0AD7"/>
<rect width="102.682" height="7.37839" transform="matrix(-1 0 0 1 154.879 45.0901)" fill="black"/>
<rect width="142.044" height="18.8559" rx="9.42794" transform="matrix(-1 0 0 1 174.561 0)" fill="#7D0AD7"/>
<rect width="102.682" height="7.37839" transform="matrix(-1 0 0 1 154.879 18.8559)" fill="black"/>
<path d="M72.0689 327.508L100.789 354.429L127.858 327.921L72.0689 327.508Z" fill="#EBA3E8"/>
<path d="M72.0693 327.508L100.789 354.429L73.7198 380.938L72.0693 327.508Z" fill="#E35EDE"/>
<path d="M129.507 381.35L100.787 354.429L127.856 327.921L129.507 381.35Z" fill="#EA61E5"/>
<path d="M129.507 381.35L100.787 354.43L73.7181 380.938L129.507 381.35Z" fill="#CD52C9"/>
<path d="M87.6381 342.103L93.238 361.874L108.391 347.035L87.6381 342.103Z" fill="#F077EC"/>
<path d="M114.044 366.854L108.365 347.009L93.2122 361.848L114.044 366.854Z" fill="#F077EC"/>
<path fill-rule="evenodd" clip-rule="evenodd" d="M213.396 111H207V176.888H213.396C218.919 176.888 223.396 172.411 223.396 166.888V162.872C223.919 162.956 224.454 163 225 163H336C341.523 163 346 158.523 346 153V132C346 126.477 341.523 122 336 122H225C224.454 122 223.919 122.044 223.396 122.128V121C223.396 115.477 218.919 111 213.396 111Z" fill="#4B4242"/>
<path fill-rule="evenodd" clip-rule="evenodd" d="M451.278 325.405C451.278 325.405 451.278 325.405 451.278 325.405H337.907C337.907 325.405 337.907 325.405 337.907 325.405V325.405C337.907 325.405 337.907 325.405 337.907 325.405H317.447C309.125 325.405 304.444 334.976 309.553 341.545L337.907 378C337.907 378 337.907 378 337.907 378L337.907 378C337.907 378 337.907 378 337.907 378V378C337.907 378 337.907 378 337.907 378H451.278C451.278 378 451.278 378 451.278 378V378C451.278 378 451.279 378 451.279 378L479.633 341.545C484.742 334.976 480.061 325.405 471.739 325.405H451.279C451.278 325.405 451.278 325.405 451.278 325.405V325.405Z" fill="#4B4242"/>
<rect x="325.271" y="67" width="137.415" height="251.42" rx="10" fill="#4B4242"/>
<rect x="319.001" y="306" width="151" height="20" fill="#7D0AD7"/>
</svg>
