<svg width="162" height="231" viewBox="0 0 162 231" fill="none" xmlns="http://www.w3.org/2000/svg">
<path fill-rule="evenodd" clip-rule="evenodd" d="M120.997 79.5476C120.755 63.1876 107.417 50 91 50H71C54.5825 50 41.2452 63.1876 41.0033 79.5476C16.5151 93.4798 0 119.811 0 150C0 194.735 36.2649 231 81 231C125.735 231 162 194.735 162 150C162 119.811 145.485 93.4798 120.997 79.5476Z" fill="#4B4242"/>
<circle cx="81.5" cy="149.5" r="68.5" fill="#7D0AD7"/>
<line x1="81.5" y1="81" x2="81.5" y2="101" stroke="#EA61E5" stroke-width="5"/>
<line x1="81.5" y1="198" x2="81.5" y2="218" stroke="#EA61E5" stroke-width="5"/>
<line x1="149.495" y1="148.257" x2="129.495" y2="148.257" stroke="#EA61E5" stroke-width="5"/>
<line x1="33.5049" y1="149.743" x2="13.5049" y2="149.743" stroke="#EA61E5" stroke-width="5"/>
<line x1="35.4272" y1="98.8095" x2="48.8791" y2="113.61" stroke="#EA61E5" stroke-width="5"/>
<line x1="114.103" y1="185.17" x2="127.555" y2="199.97" stroke="#EA61E5" stroke-width="5"/>
<line x1="130.98" y1="102.847" x2="116.18" y2="116.299" stroke="#EA61E5" stroke-width="5"/>
<line x1="46.367" y1="182.943" x2="31.5669" y2="196.395" stroke="#EA61E5" stroke-width="5"/>
<path d="M116.5 27V52C116.5 53.933 114.933 55.5 113 55.5H81H49C47.067 55.5 45.5 53.933 45.5 52V27C45.5 25.0643 47.0628 23.5 48.9931 23.5H49.045H49.0971H49.1494H49.2019H49.2546H49.3075H49.3607H49.414H49.4675H49.5212H49.5752H49.6293H49.6836H49.7381H49.7928H49.8477H49.9028H49.9581H50.0136H50.0693H50.1251H50.1812H50.2374H50.2938H50.3504H50.4072H50.4642H50.5213H50.5787H50.6362H50.6939H50.7518H50.8098H50.868H50.9265H50.985H51.0438H51.1027H51.1618H51.2211H51.2805H51.3401H51.3999H51.4598H51.5199H51.5802H51.6406H51.7012H51.762H51.8229H51.884H51.9452H52.0066H52.0682H52.1299H52.1918H52.2538H52.3159H52.3783H52.4407H52.5034H52.5661H52.6291H52.6921H52.7554H52.8187H52.8822H52.9459H53.0097H53.0736H53.1377H53.2019H53.2662H53.3307H53.3953H53.4601H53.525H53.59H53.6552H53.7205H53.7859H53.8514H53.9171H53.9829H54.0488H54.1149H54.1811H54.2474H54.3138H54.3804H54.4471H54.5138H54.5808H54.6478H54.7149H54.7822H54.8496H54.9171H54.9847H55.0524H55.1202H55.1881H55.2562H55.3243H55.3926H55.461H55.5294H55.598H55.6667H55.7355H55.8044H55.8733H55.9424H56.0116H56.0809H56.1503H56.2197H56.2893H56.3589H56.4287H56.4985H56.5685H56.6385H56.7086H56.7788H56.8491H56.9194H56.9899H57.0604H57.1311H57.2018H57.2725H57.3434H57.4143H57.4854H57.5565H57.6276H57.6989H57.7702H57.8416H57.913H57.9846H58.0562H58.1279H58.1996H58.2714H58.3433H58.4152H58.4872H58.5593H58.6314H58.7036H58.7759H58.8482H58.9205H58.993H59.0655H59.138H59.2106H59.2832H59.3559H59.4287H59.5015H59.5743H59.6472H59.7202H59.7931H59.8662H59.9393H60.0124H60.0856H60.1588H60.232H60.3053H60.3786H60.452H60.5254H60.5988H60.6723H60.7458H60.8193H60.8929H60.9665H61.0401H61.1138H61.1875H61.2612H61.3349H61.4087H61.4825H61.5563H61.6301H61.704H61.7779H61.8518H61.9257H61.9996H62.0736H62.1475H62.2215H62.2955H62.3695H62.4435H62.5175H62.5915H62.6656H62.7396H62.8137H62.8877H62.9618H63.0359H63.1099H63.184H63.2581H63.3322H63.4062H63.4803H63.5544H63.6284H63.7025H63.7765H63.8506H63.9246H63.9986H64.0726H64.1466H64.2206H64.2946H64.3686H64.4425H64.5164H64.5904H64.6643H64.7381H64.812H64.8858H64.9596H65.0334H65.1072H65.1809H65.2547H65.3283H65.402H65.4756H65.5492H65.6228H65.6964H65.7699H65.8433H65.9168H65.9902H66.0635H66.1369H66.2102H66.2834H66.3566H66.4298H66.5029H66.576H66.649H66.722H66.795H66.8679H66.9407H67.0135H67.0863H67.159H67.2316H67.3042H67.3768H67.4493H67.5217H67.5941H67.6664H67.7386H67.8108H67.883H67.955H68.027H68.099H68.1709H68.2427H68.3144H68.3861H68.4577H68.5293H68.6007H68.6721H68.7435H68.8147H68.8859H68.957H69.028H69.099H69.1698H69.2406H69.3113H69.3819H69.4525H69.5229H69.5933H69.6636H69.7338H69.8039H69.874H69.9439H70.0137H70.0835H70.1532H70.2227H70.2922H70.3616H70.4309H70.5001H70.5692H70.6382H70.707H70.7758H70.8445H70.9131H70.9816H71.05H71.1182H71.1864H71.2544H71.3224H71.3902H71.4579H71.5256H71.5931H71.6604H71.7277H71.7949H71.8619H71.9288H71.9956H72.0623H72.1289H72.1953H72.2616H72.3278H72.3939H72.4598H72.5256H72.5913H72.6569H72.7223H72.7876H72.8528H72.9178H72.9827H73.0475H73.1121H73.1766H73.241H73.3052H73.3693H73.4332H73.497H73.5607H73.6242H73.6876H73.7508H73.8139H73.8768H73.9396H74.0023H74.0647H74.1271H74.1893H74.2513H74.3132H74.3749H74.4365H74.4979H74.5591H74.6202H74.6811H74.7419H74.8025H74.863H74.9232H74.9834H75.0433H75.1031H75.1627H75.2222H75.2815H75.3406H75.3995H75.4583H75.5169H75.5753H75.6335H75.6916H75.7495H75.8072H75.8647H75.9221H75.9792H76.0362H76.093H76.1497H76.2061H76.2623H76.3184H76.3743H76.43H76.4855H76.5408H76.5959H76.6508H76.7055H76.76H76.8144H76.8685H76.9224H76.9762H77.0297H77.0831H77.1362H77.1891H77.2419H77.2944H77.3467H77.3988H77.4507H77.5024H77.5539H77.6052H77.6563H77.7071H77.7577H77.8082H77.8584H77.9084H77.9581H78.0077H78.057H78.1062H78.155H78.2037H78.2522H78.3004H78.3484H78.3962H78.4437H78.491H78.5381H78.585H78.6316H78.678H78.7242H78.7701H78.8158H78.8612H78.9065H78.9515H78.9962H79.0407H79.085H79.129H79.1728H79.2163H79.2596H79.3026H79.3454H79.388H79.4303H79.4723H79.5141H79.5557H79.597H79.638H79.6788H79.7193H79.7596H79.7996H79.8394H79.8789H79.9181H79.9571H79.9958H80.0343H80.0724H80.1104H80.148H80.1854H80.2225H80.2594H80.296H80.3323H80.3683H80.4041H80.4396H80.4748H80.5097H80.5444H80.5788H80.6129H80.6467H80.6802H80.7135H80.7465H80.7792H80.8116H80.8437H80.8755H80.9071H80.9384H80.9693H81H81.0307H81.0616H81.0929H81.1245H81.1563H81.1884H81.2208H81.2535H81.2865H81.3198H81.3533H81.3871H81.4212H81.4556H81.4903H81.5252H81.5604H81.5959H81.6317H81.6677H81.704H81.7406H81.7775H81.8146H81.852H81.8896H81.9276H81.9657H82.0042H82.0429H82.0819H82.1211H82.1606H82.2004H82.2404H82.2807H82.3212H82.362H82.403H82.4443H82.4859H82.5277H82.5697H82.612H82.6546H82.6974H82.7404H82.7837H82.8272H82.871H82.915H82.9593H83.0038H83.0485H83.0935H83.1388H83.1842H83.2299H83.2758H83.322H83.3684H83.415H83.4619H83.509H83.5563H83.6038H83.6516H83.6996H83.7478H83.7963H83.845H83.8938H83.943H83.9923H84.0419H84.0916H84.1416H84.1918H84.2423H84.2929H84.3438H84.3948H84.4461H84.4976H84.5493H84.6012H84.6533H84.7056H84.7581H84.8109H84.8638H84.9169H84.9703H85.0238H85.0776H85.1315H85.1856H85.24H85.2945H85.3492H85.4041H85.4592H85.5145H85.57H85.6257H85.6816H85.7377H85.7939H85.8503H85.907H85.9638H86.0208H86.0779H86.1353H86.1928H86.2505H86.3084H86.3665H86.4247H86.4831H86.5417H86.6005H86.6594H86.7185H86.7778H86.8373H86.8969H86.9567H87.0166H87.0768H87.137H87.1975H87.2581H87.3189H87.3798H87.4409H87.5021H87.5635H87.6251H87.6868H87.7487H87.8107H87.8729H87.9353H87.9977H88.0604H88.1232H88.1861H88.2492H88.3124H88.3758H88.4393H88.503H88.5668H88.6307H88.6948H88.759H88.8234H88.8879H88.9525H89.0173H89.0822H89.1472H89.2124H89.2777H89.3431H89.4087H89.4744H89.5402H89.6061H89.6722H89.7384H89.8047H89.8711H89.9377H90.0044H90.0712H90.1381H90.2051H90.2723H90.3396H90.4069H90.4744H90.5421H90.6098H90.6776H90.7456H90.8136H90.8818H90.95H91.0184H91.0869H91.1555H91.2242H91.293H91.3619H91.4308H91.4999H91.5691H91.6384H91.7078H91.7773H91.8468H91.9165H91.9863H92.0561H92.126H92.1961H92.2662H92.3364H92.4067H92.4771H92.5475H92.6181H92.6887H92.7594H92.8302H92.901H92.972H93.043H93.1141H93.1853H93.2565H93.3279H93.3993H93.4707H93.5423H93.6139H93.6856H93.7573H93.8291H93.901H93.973H94.045H94.117H94.1892H94.2614H94.3336H94.4059H94.4783H94.5507H94.6232H94.6958H94.7684H94.841H94.9137H94.9865H95.0593H95.1321H95.205H95.278H95.351H95.424H95.4971H95.5702H95.6434H95.7166H95.7898H95.8631H95.9365H96.0098H96.0832H96.1567H96.2301H96.3036H96.3772H96.4508H96.5244H96.598H96.6717H96.7453H96.8191H96.8928H96.9666H97.0404H97.1142H97.188H97.2619H97.3358H97.4096H97.4836H97.5575H97.6314H97.7054H97.7794H97.8534H97.9274H98.0014H98.0754H98.1494H98.2235H98.2975H98.3716H98.4456H98.5197H98.5938H98.6678H98.7419H98.816H98.8901H98.9641H99.0382H99.1123H99.1863H99.2604H99.3344H99.4085H99.4825H99.5565H99.6305H99.7045H99.7785H99.8525H99.9264H100H100.074H100.148H100.222H100.296H100.37H100.444H100.518H100.591H100.665H100.739H100.813H100.886H100.96H101.033H101.107H101.181H101.254H101.328H101.401H101.475H101.548H101.621H101.695H101.768H101.841H101.914H101.988H102.061H102.134H102.207H102.28H102.353H102.426H102.499H102.571H102.644H102.717H102.789H102.862H102.935H103.007H103.079H103.152H103.224H103.296H103.369H103.441H103.513H103.585H103.657H103.729H103.8H103.872H103.944H104.015H104.087H104.158H104.23H104.301H104.372H104.444H104.515H104.586H104.657H104.727H104.798H104.869H104.94H105.01H105.081H105.151H105.221H105.291H105.362H105.432H105.501H105.571H105.641H105.711H105.78H105.85H105.919H105.988H106.058H106.127H106.196H106.265H106.333H106.402H106.471H106.539H106.607H106.676H106.744H106.812H106.88H106.948H107.015H107.083H107.15H107.218H107.285H107.352H107.419H107.486H107.553H107.62H107.686H107.753H107.819H107.885H107.951H108.017H108.083H108.149H108.214H108.28H108.345H108.41H108.475H108.54H108.605H108.669H108.734H108.798H108.862H108.926H108.99H109.054H109.118H109.181H109.245H109.308H109.371H109.434H109.497H109.559H109.622H109.684H109.746H109.808H109.87H109.932H109.993H110.055H110.116H110.177H110.238H110.299H110.359H110.42H110.48H110.54H110.6H110.66H110.719H110.779H110.838H110.897H110.956H111.015H111.074H111.132H111.19H111.248H111.306H111.364H111.421H111.479H111.536H111.593H111.65H111.706H111.763H111.819H111.875H111.931H111.986H112.042H112.097H112.152H112.207H112.262H112.316H112.371H112.425H112.479H112.532H112.586H112.639H112.692H112.745H112.798H112.851H112.903H112.955H113.007C114.937 23.5 116.5 25.0643 116.5 27Z" fill="#4B4242" stroke="#20EFA5" stroke-width="3"/>
<line x1="81.5" y1="81" x2="81.5" y2="104" stroke="#EA61E5" stroke-width="5"/>
<rect x="69" width="23.9736" height="46.9648" rx="11.9868" fill="#4B4242"/>
</svg>
